<svg width="40" height="40" viewBox="0 0 40 40" fill="none" xmlns="http://www.w3.org/2000/svg">
<path d="M24.534 14.65L17.384 21.8167L14.634 19.0667C14.4846 18.8922 14.3007 18.7505 14.0939 18.6505C13.8872 18.5505 13.6619 18.4942 13.4324 18.4854C13.2029 18.4765 12.974 18.5152 12.7601 18.599C12.5462 18.6828 12.352 18.8099 12.1896 18.9723C12.0272 19.1347 11.9001 19.329 11.8163 19.5428C11.7325 19.7567 11.6938 19.9856 11.7027 20.2151C11.7115 20.4447 11.7677 20.6699 11.8678 20.8767C11.9678 21.0834 12.1095 21.2673 12.284 21.4167L16.2007 25.35C16.3564 25.5045 16.5411 25.6267 16.7442 25.7097C16.9472 25.7926 17.1647 25.8346 17.384 25.8334C17.8212 25.8315 18.2402 25.6579 18.5507 25.35L26.884 17.0167C27.0402 16.8618 27.1642 16.6774 27.2488 16.4743C27.3334 16.2712 27.377 16.0534 27.377 15.8334C27.377 15.6134 27.3334 15.3955 27.2488 15.1924C27.1642 14.9893 27.0402 14.805 26.884 14.65C26.5717 14.3396 26.1493 14.1654 25.709 14.1654C25.2687 14.1654 24.8463 14.3396 24.534 14.65ZM20.0007 3.33337C16.7043 3.33337 13.482 4.31086 10.7412 6.14221C8.00034 7.97357 5.86413 10.5765 4.60267 13.622C3.34121 16.6674 3.01115 20.0185 3.65424 23.2515C4.29732 26.4846 5.88467 29.4543 8.21555 31.7852C10.5464 34.116 13.5161 35.7034 16.7492 36.3465C19.9822 36.9896 23.3333 36.6595 26.3787 35.398C29.4242 34.1366 32.0271 32.0004 33.8585 29.2595C35.6898 26.5187 36.6673 23.2964 36.6673 20C36.6673 17.8113 36.2362 15.6441 35.3987 13.622C34.5611 11.5999 33.3334 9.76257 31.7858 8.21493C30.2381 6.66728 28.4008 5.43963 26.3787 4.60205C24.3566 3.76447 22.1894 3.33337 20.0007 3.33337ZM20.0007 33.3334C17.3636 33.3334 14.7857 32.5514 12.5931 31.0863C10.4004 29.6212 8.69143 27.5388 7.68227 25.1025C6.6731 22.6661 6.40905 19.9853 6.92352 17.3988C7.43799 14.8124 8.70787 12.4367 10.5726 10.572C12.4373 8.70725 14.813 7.43737 17.3995 6.9229C19.9859 6.40843 22.6668 6.67248 25.1031 7.68165C27.5395 8.69082 29.6218 10.3998 31.0869 12.5924C32.552 14.7851 33.334 17.363 33.334 20C33.334 23.5363 31.9292 26.9277 29.4288 29.4281C26.9283 31.9286 23.5369 33.3334 20.0007 33.3334Z" fill="#759589"/>
</svg>
