<svg width="44" height="44" viewBox="0 0 44 44" fill="none" xmlns="http://www.w3.org/2000/svg">
<rect width="44" height="44" rx="22" fill="#304248"/>
<path d="M16.9064 20.7164C16.8056 20.8241 16.684 20.9104 16.549 20.9704C16.414 21.0303 16.2682 21.0625 16.1203 21.0651C15.9725 21.0677 15.8257 21.0406 15.6886 20.9855C15.5515 20.9303 15.427 20.8483 15.3225 20.7442C15.2179 20.6401 15.1355 20.5161 15.0801 20.3796C15.0248 20.2431 14.9976 20.0969 15.0002 19.9497C15.0028 19.8025 15.0351 19.6574 15.0953 19.5229C15.1555 19.3884 15.2422 19.2674 15.3504 19.167L21.222 13.3206C21.4284 13.1153 21.7083 13 22 13C22.2917 13 22.5716 13.1153 22.778 13.3206L28.6496 19.167C28.7578 19.2674 28.8445 19.3884 28.9047 19.5229C28.9649 19.6574 28.9972 19.8025 28.9998 19.9497C29.0024 20.0969 28.9752 20.2431 28.9199 20.3796C28.8645 20.5161 28.7821 20.6401 28.6775 20.7442C28.573 20.8483 28.4485 20.9303 28.3114 20.9855C28.1743 21.0406 28.0275 21.0677 27.8797 21.0651C27.7318 21.0625 27.586 21.0303 27.451 20.9704C27.316 20.9104 27.1944 20.8241 27.0936 20.7164L23.1009 16.7408L23.1009 30.9038C23.1009 31.1945 22.9849 31.4733 22.7785 31.6789C22.572 31.8845 22.292 32 22 32C21.708 32 21.428 31.8845 21.2215 31.6789C21.0151 31.4733 20.8991 31.1945 20.8991 30.9038L20.8991 16.7408L16.9064 20.7164Z" fill="#EBF4F1"/>
</svg>
