<svg width="236" height="43" viewBox="0 0 236 43" fill="none" xmlns="http://www.w3.org/2000/svg">
<path d="M-0.000624791 42.8401V42.2401H1.61938C2.65938 42.2401 3.47938 42.1001 4.07938 41.8201C4.71938 41.5401 5.15938 41.0601 5.39938 40.3801C5.67938 39.7001 5.81938 38.7401 5.81938 37.5001V5.22009C5.81938 4.02009 5.67938 3.10009 5.39938 2.46009C5.15938 1.78008 4.71938 1.30009 4.07938 1.02009C3.47938 0.740085 2.65938 0.600085 1.61938 0.600085H-0.000624791V8.51154e-05H15.7194V0.600085H14.0994C13.0594 0.600085 12.2194 0.740085 11.5794 1.02009C10.9794 1.30009 10.5394 1.78008 10.2594 2.46009C10.0194 3.14009 9.89938 4.10009 9.89938 5.34009V20.1601H31.5594V5.34009C31.5594 4.10009 31.4194 3.14009 31.1394 2.46009C30.8994 1.78008 30.4794 1.30009 29.8794 1.02009C29.2794 0.740085 28.4394 0.600085 27.3594 0.600085H25.7394V8.51154e-05H41.4594V0.600085H39.8394C38.7994 0.600085 37.9794 0.740085 37.3794 1.02009C36.7794 1.30009 36.3394 1.78008 36.0594 2.46009C35.7794 3.10009 35.6394 4.02009 35.6394 5.22009V37.5001C35.6394 38.7401 35.7794 39.7001 36.0594 40.3801C36.3394 41.0601 36.7794 41.5401 37.3794 41.8201C37.9794 42.1001 38.7994 42.2401 39.8394 42.2401H41.4594V42.8401H25.7394V42.2401H27.3594C28.4394 42.2401 29.2794 42.1001 29.8794 41.8201C30.4794 41.5401 30.8994 41.0601 31.1394 40.3801C31.4194 39.7001 31.5594 38.7401 31.5594 37.5001V20.7601H9.89938V37.5001C9.89938 38.7401 10.0194 39.7001 10.2594 40.3801C10.5394 41.0601 10.9794 41.5401 11.5794 41.8201C12.2194 42.1001 13.0594 42.2401 14.0994 42.2401H15.7194V42.8401H-0.000624791ZM39.1386 42.8401V42.2401H40.6386C41.5186 42.2401 42.2186 42.1401 42.7386 41.9401C43.2586 41.7401 43.6986 41.3601 44.0586 40.8001C44.4186 40.2401 44.7786 39.4401 45.1386 38.4001L58.4586 8.51154e-05H60.3786L74.8386 39.1801C75.1586 40.0201 75.4586 40.6601 75.7386 41.1001C76.0186 41.5401 76.3586 41.8401 76.7586 42.0001C77.1986 42.1601 77.7786 42.2401 78.4986 42.2401H79.4586V42.8401H64.8186V42.2401H66.6186C68.1386 42.2401 69.1586 42.0801 69.6786 41.7601C70.1986 41.4401 70.4586 40.9001 70.4586 40.1401C70.4586 39.7801 70.3986 39.3601 70.2786 38.8801C70.1586 38.3601 70.0186 37.8401 69.8586 37.3201C69.6986 36.8001 69.5586 36.3601 69.4386 36.0001L66.2586 27.3001H49.6986L46.6986 35.7601C46.5786 36.1201 46.4386 36.5601 46.2786 37.0801C46.1186 37.6001 45.9786 38.1201 45.8586 38.6401C45.7386 39.1201 45.6786 39.5401 45.6786 39.9001C45.6786 40.7401 46.0186 41.3401 46.6986 41.7001C47.3786 42.0601 48.6386 42.2401 50.4786 42.2401H52.7586V42.8401H39.1386ZM49.8786 26.7001H66.0786L61.4586 13.8601C61.0186 12.6601 60.5786 11.4201 60.1386 10.1401C59.6986 8.86009 59.2786 7.64009 58.8786 6.48009C58.5186 5.28009 58.1786 4.20009 57.8586 3.24009C57.6586 3.92009 57.4186 4.66009 57.1386 5.46009C56.8986 6.26009 56.6186 7.10009 56.2986 7.98009C56.0186 8.82009 55.7186 9.68009 55.3986 10.5601C55.1186 11.4001 54.8386 12.2401 54.5586 13.0801L49.8786 26.7001ZM77.7027 42.8401V42.2401H79.8627C80.9027 42.2401 81.7227 42.1001 82.3227 41.8201C82.9627 41.5401 83.4027 41.0601 83.6427 40.3801C83.9227 39.7001 84.0627 38.7401 84.0627 37.5001V5.22009C84.0627 4.02009 83.9227 3.10009 83.6427 2.46009C83.4027 1.78008 82.9627 1.30009 82.3227 1.02009C81.7227 0.740085 80.9027 0.600085 79.8627 0.600085H77.7027V8.51154e-05H87.0027L111.063 36.6601V5.34009C111.063 4.10009 110.923 3.14009 110.643 2.46009C110.403 1.78008 109.983 1.30009 109.383 1.02009C108.783 0.740085 107.943 0.600085 106.863 0.600085H104.823V8.51154e-05H117.963V0.600085H115.923C114.883 0.600085 114.043 0.740085 113.403 1.02009C112.803 1.30009 112.363 1.78008 112.083 2.46009C111.803 3.14009 111.663 4.10009 111.663 5.34009V42.8401H110.463L84.6627 3.72009V37.5001C84.6627 38.7401 84.7827 39.7001 85.0227 40.3801C85.3027 41.0601 85.7427 41.5401 86.3427 41.8201C86.9827 42.1001 87.8227 42.2401 88.8627 42.2401H90.9027V42.8401H77.7027ZM117.785 42.8401V42.2401H119.945C120.985 42.2401 121.805 42.1001 122.405 41.8201C123.045 41.5401 123.485 41.0601 123.725 40.3801C124.005 39.7001 124.145 38.7401 124.145 37.5001V5.22009C124.145 4.02009 124.005 3.10009 123.725 2.46009C123.485 1.78008 123.045 1.30009 122.405 1.02009C121.805 0.740085 120.985 0.600085 119.945 0.600085H117.785V8.51154e-05H127.085L151.145 36.6601V5.34009C151.145 4.10009 151.005 3.14009 150.725 2.46009C150.485 1.78008 150.065 1.30009 149.465 1.02009C148.865 0.740085 148.025 0.600085 146.945 0.600085H144.905V8.51154e-05H158.045V0.600085H156.005C154.965 0.600085 154.125 0.740085 153.485 1.02009C152.885 1.30009 152.445 1.78008 152.165 2.46009C151.885 3.14009 151.745 4.10009 151.745 5.34009V42.8401H150.545L124.745 3.72009V37.5001C124.745 38.7401 124.865 39.7001 125.105 40.3801C125.385 41.0601 125.825 41.5401 126.425 41.8201C127.065 42.1001 127.905 42.2401 128.945 42.2401H130.985V42.8401H117.785ZM155.168 42.8401V42.2401H156.668C157.548 42.2401 158.248 42.1401 158.768 41.9401C159.288 41.7401 159.728 41.3601 160.088 40.8001C160.448 40.2401 160.808 39.4401 161.168 38.4001L174.488 8.51154e-05H176.408L190.868 39.1801C191.188 40.0201 191.488 40.6601 191.768 41.1001C192.048 41.5401 192.388 41.8401 192.788 42.0001C193.228 42.1601 193.808 42.2401 194.528 42.2401H195.488V42.8401H180.848V42.2401H182.648C184.168 42.2401 185.188 42.0801 185.708 41.7601C186.228 41.4401 186.488 40.9001 186.488 40.1401C186.488 39.7801 186.428 39.3601 186.308 38.8801C186.188 38.3601 186.048 37.8401 185.888 37.3201C185.728 36.8001 185.588 36.3601 185.468 36.0001L182.288 27.3001H165.728L162.728 35.7601C162.608 36.1201 162.468 36.5601 162.308 37.0801C162.148 37.6001 162.008 38.1201 161.888 38.6401C161.768 39.1201 161.708 39.5401 161.708 39.9001C161.708 40.7401 162.048 41.3401 162.728 41.7001C163.408 42.0601 164.668 42.2401 166.508 42.2401H168.788V42.8401H155.168ZM165.908 26.7001H182.108L177.488 13.8601C177.048 12.6601 176.608 11.4201 176.168 10.1401C175.728 8.86009 175.308 7.64009 174.908 6.48009C174.548 5.28009 174.208 4.20009 173.888 3.24009C173.688 3.92009 173.448 4.66009 173.168 5.46009C172.928 6.26009 172.648 7.10009 172.328 7.98009C172.048 8.82009 171.748 9.68009 171.428 10.5601C171.148 11.4001 170.868 12.2401 170.588 13.0801L165.908 26.7001ZM193.792 42.8401V42.2401H195.412C196.452 42.2401 197.272 42.1001 197.872 41.8201C198.512 41.5401 198.952 41.0601 199.192 40.3801C199.472 39.7001 199.612 38.7401 199.612 37.5001V5.22009C199.612 4.02009 199.472 3.10009 199.192 2.46009C198.952 1.78008 198.512 1.30009 197.872 1.02009C197.272 0.740085 196.452 0.600085 195.412 0.600085H193.792V8.51154e-05H209.512V0.600085H207.892C206.852 0.600085 206.012 0.740085 205.372 1.02009C204.772 1.30009 204.332 1.78008 204.052 2.46009C203.812 3.14009 203.692 4.10009 203.692 5.34009V20.1601H225.352V5.34009C225.352 4.10009 225.212 3.14009 224.932 2.46009C224.692 1.78008 224.272 1.30009 223.672 1.02009C223.072 0.740085 222.232 0.600085 221.152 0.600085H219.532V8.51154e-05H235.252V0.600085H233.632C232.592 0.600085 231.772 0.740085 231.172 1.02009C230.572 1.30009 230.132 1.78008 229.852 2.46009C229.572 3.10009 229.432 4.02009 229.432 5.22009V37.5001C229.432 38.7401 229.572 39.7001 229.852 40.3801C230.132 41.0601 230.572 41.5401 231.172 41.8201C231.772 42.1001 232.592 42.2401 233.632 42.2401H235.252V42.8401H219.532V42.2401H221.152C222.232 42.2401 223.072 42.1001 223.672 41.8201C224.272 41.5401 224.692 41.0601 224.932 40.3801C225.212 39.7001 225.352 38.7401 225.352 37.5001V20.7601H203.692V37.5001C203.692 38.7401 203.812 39.7001 204.052 40.3801C204.332 41.0601 204.772 41.5401 205.372 41.8201C206.012 42.1001 206.852 42.2401 207.892 42.2401H209.512V42.8401H193.792Z" fill="#304248"/>
</svg>
