<svg width="377" height="69" viewBox="0 0 377 69" fill="none" xmlns="http://www.w3.org/2000/svg">
<path d="M-0.00060904 68.5439V67.5839H2.59139C4.25539 67.5839 5.56739 67.3599 6.52739 66.9119C7.55139 66.4639 8.25539 65.6959 8.63939 64.6079C9.08739 63.5199 9.31139 61.9839 9.31139 59.9999V8.35194C9.31139 6.43194 9.08739 4.95994 8.63939 3.93594C8.25539 2.84794 7.55139 2.07994 6.52739 1.63194C5.56739 1.18394 4.25539 0.95994 2.59139 0.95994H-0.00060904V-5.91278e-05H25.1514V0.95994H22.5594C20.8954 0.95994 19.5514 1.18394 18.5274 1.63194C17.5674 2.07994 16.8634 2.84794 16.4154 3.93594C16.0314 5.02394 15.8394 6.55994 15.8394 8.54395V32.2559H50.4954V8.54395C50.4954 6.55994 50.2714 5.02394 49.8234 3.93594C49.4394 2.84794 48.7674 2.07994 47.8074 1.63194C46.8474 1.18394 45.5034 0.95994 43.7754 0.95994H41.1834V-5.91278e-05H66.3354V0.95994H63.7434C62.0794 0.95994 60.7674 1.18394 59.8074 1.63194C58.8474 2.07994 58.1434 2.84794 57.6954 3.93594C57.2474 4.95994 57.0234 6.43194 57.0234 8.35194V59.9999C57.0234 61.9839 57.2474 63.5199 57.6954 64.6079C58.1434 65.6959 58.8474 66.4639 59.8074 66.9119C60.7674 67.3599 62.0794 67.5839 63.7434 67.5839H66.3354V68.5439H41.1834V67.5839H43.7754C45.5034 67.5839 46.8474 67.3599 47.8074 66.9119C48.7674 66.4639 49.4394 65.6959 49.8234 64.6079C50.2714 63.5199 50.4954 61.9839 50.4954 59.9999V33.2159H15.8394V59.9999C15.8394 61.9839 16.0314 63.5199 16.4154 64.6079C16.8634 65.6959 17.5674 66.4639 18.5274 66.9119C19.5514 67.3599 20.8954 67.5839 22.5594 67.5839H25.1514V68.5439H-0.00060904ZM62.6221 68.5439V67.5839H65.0221C66.4301 67.5839 67.5501 67.4239 68.3821 67.1039C69.2141 66.7839 69.9181 66.1759 70.4941 65.2799C71.0701 64.3839 71.6461 63.1039 72.2221 61.4399L93.5341 -5.91278e-05H96.6061L119.742 62.6879C120.254 64.0319 120.734 65.0559 121.182 65.7599C121.63 66.4639 122.174 66.9439 122.814 67.1999C123.518 67.4559 124.446 67.5839 125.598 67.5839H127.134V68.5439H103.71V67.5839H106.59C109.022 67.5839 110.654 67.3279 111.486 66.8159C112.318 66.3039 112.734 65.4399 112.734 64.2239C112.734 63.6479 112.638 62.9759 112.446 62.2079C112.254 61.3759 112.03 60.5439 111.774 59.7119C111.518 58.8799 111.294 58.1759 111.102 57.5999L106.014 43.6799H79.5181L74.7181 57.2159C74.5261 57.7919 74.3021 58.4959 74.0461 59.3279C73.7901 60.1599 73.5661 60.9919 73.3741 61.8239C73.1821 62.5919 73.0861 63.2639 73.0861 63.8399C73.0861 65.1839 73.6301 66.1439 74.7181 66.7199C75.8061 67.2959 77.8221 67.5839 80.7661 67.5839H84.4141V68.5439H62.6221ZM79.8061 42.7199H105.726L98.3341 22.1759C97.6301 20.2559 96.9261 18.2719 96.2221 16.2239C95.5181 14.1759 94.8461 12.2239 94.2061 10.3679C93.6301 8.44794 93.0861 6.71994 92.5741 5.18394C92.2541 6.27194 91.8701 7.45594 91.4221 8.73594C91.0381 10.0159 90.5901 11.3599 90.0781 12.7679C89.6301 14.1119 89.1501 15.4879 88.6381 16.8959C88.1901 18.2399 87.7421 19.5839 87.2941 20.9279L79.8061 42.7199ZM124.325 68.5439V67.5839H127.781C129.445 67.5839 130.757 67.3599 131.717 66.9119C132.741 66.4639 133.445 65.6959 133.829 64.6079C134.277 63.5199 134.501 61.9839 134.501 59.9999V8.35194C134.501 6.43194 134.277 4.95994 133.829 3.93594C133.445 2.84794 132.741 2.07994 131.717 1.63194C130.757 1.18394 129.445 0.95994 127.781 0.95994H124.325V-5.91278e-05H139.205L177.701 58.6559V8.54395C177.701 6.55994 177.477 5.02394 177.029 3.93594C176.645 2.84794 175.973 2.07994 175.013 1.63194C174.053 1.18394 172.709 0.95994 170.981 0.95994H167.717V-5.91278e-05H188.741V0.95994H185.477C183.813 0.95994 182.469 1.18394 181.445 1.63194C180.485 2.07994 179.781 2.84794 179.333 3.93594C178.885 5.02394 178.661 6.55994 178.661 8.54395V68.5439H176.741L135.461 5.95194V59.9999C135.461 61.9839 135.653 63.5199 136.037 64.6079C136.485 65.6959 137.189 66.4639 138.149 66.9119C139.173 67.3599 140.517 67.5839 142.181 67.5839H145.445V68.5439H124.325ZM188.457 68.5439V67.5839H191.913C193.577 67.5839 194.889 67.3599 195.849 66.9119C196.873 66.4639 197.577 65.6959 197.961 64.6079C198.409 63.5199 198.633 61.9839 198.633 59.9999V8.35194C198.633 6.43194 198.409 4.95994 197.961 3.93594C197.577 2.84794 196.873 2.07994 195.849 1.63194C194.889 1.18394 193.577 0.95994 191.913 0.95994H188.457V-5.91278e-05H203.337L241.833 58.6559V8.54395C241.833 6.55994 241.609 5.02394 241.161 3.93594C240.777 2.84794 240.105 2.07994 239.145 1.63194C238.185 1.18394 236.841 0.95994 235.113 0.95994H231.849V-5.91278e-05H252.873V0.95994H249.609C247.945 0.95994 246.601 1.18394 245.577 1.63194C244.617 2.07994 243.913 2.84794 243.465 3.93594C243.017 5.02394 242.793 6.55994 242.793 8.54395V68.5439H240.873L199.593 5.95194V59.9999C199.593 61.9839 199.785 63.5199 200.169 64.6079C200.617 65.6959 201.321 66.4639 202.281 66.9119C203.305 67.3599 204.649 67.5839 206.313 67.5839H209.577V68.5439H188.457ZM248.27 68.5439V67.5839H250.67C252.078 67.5839 253.198 67.4239 254.03 67.1039C254.862 66.7839 255.566 66.1759 256.142 65.2799C256.718 64.3839 257.294 63.1039 257.87 61.4399L279.182 -5.91278e-05H282.254L305.39 62.6879C305.902 64.0319 306.382 65.0559 306.83 65.7599C307.278 66.4639 307.822 66.9439 308.462 67.1999C309.166 67.4559 310.094 67.5839 311.246 67.5839H312.782V68.5439H289.358V67.5839H292.238C294.67 67.5839 296.302 67.3279 297.134 66.8159C297.966 66.3039 298.382 65.4399 298.382 64.2239C298.382 63.6479 298.286 62.9759 298.094 62.2079C297.902 61.3759 297.678 60.5439 297.422 59.7119C297.166 58.8799 296.942 58.1759 296.75 57.5999L291.662 43.6799H265.166L260.366 57.2159C260.174 57.7919 259.95 58.4959 259.694 59.3279C259.438 60.1599 259.214 60.9919 259.022 61.8239C258.83 62.5919 258.734 63.2639 258.734 63.8399C258.734 65.1839 259.278 66.1439 260.366 66.7199C261.454 67.2959 263.47 67.5839 266.414 67.5839H270.062V68.5439H248.27ZM265.454 42.7199H291.374L283.982 22.1759C283.278 20.2559 282.574 18.2719 281.87 16.2239C281.166 14.1759 280.494 12.2239 279.854 10.3679C279.278 8.44794 278.734 6.71994 278.222 5.18394C277.902 6.27194 277.518 7.45594 277.07 8.73594C276.686 10.0159 276.238 11.3599 275.726 12.7679C275.278 14.1119 274.798 15.4879 274.286 16.8959C273.838 18.2399 273.39 19.5839 272.942 20.9279L265.454 42.7199ZM310.068 68.5439V67.5839H312.66C314.324 67.5839 315.636 67.3599 316.596 66.9119C317.62 66.4639 318.324 65.6959 318.708 64.6079C319.156 63.5199 319.38 61.9839 319.38 59.9999V8.35194C319.38 6.43194 319.156 4.95994 318.708 3.93594C318.324 2.84794 317.62 2.07994 316.596 1.63194C315.636 1.18394 314.324 0.95994 312.66 0.95994H310.068V-5.91278e-05H335.22V0.95994H332.628C330.964 0.95994 329.62 1.18394 328.596 1.63194C327.636 2.07994 326.932 2.84794 326.484 3.93594C326.1 5.02394 325.908 6.55994 325.908 8.54395V32.2559H360.564V8.54395C360.564 6.55994 360.34 5.02394 359.892 3.93594C359.508 2.84794 358.836 2.07994 357.876 1.63194C356.916 1.18394 355.572 0.95994 353.844 0.95994H351.252V-5.91278e-05H376.404V0.95994H373.812C372.148 0.95994 370.836 1.18394 369.876 1.63194C368.916 2.07994 368.212 2.84794 367.764 3.93594C367.316 4.95994 367.092 6.43194 367.092 8.35194V59.9999C367.092 61.9839 367.316 63.5199 367.764 64.6079C368.212 65.6959 368.916 66.4639 369.876 66.9119C370.836 67.3599 372.148 67.5839 373.812 67.5839H376.404V68.5439H351.252V67.5839H353.844C355.572 67.5839 356.916 67.3599 357.876 66.9119C358.836 66.4639 359.508 65.6959 359.892 64.6079C360.34 63.5199 360.564 61.9839 360.564 59.9999V33.2159H325.908V59.9999C325.908 61.9839 326.1 63.5199 326.484 64.6079C326.932 65.6959 327.636 66.4639 328.596 66.9119C329.62 67.3599 330.964 67.5839 332.628 67.5839H335.22V68.5439H310.068Z" fill="#EBF4F1"/>
</svg>
