<svg width="362" height="57" viewBox="0 0 362 57" fill="none" xmlns="http://www.w3.org/2000/svg">
<path d="M33.408 27.648C31.44 27.744 29.472 27.792 27.504 27.888C27.12 27.936 26.736 27.984 26.4 28.08C25.488 28.272 24.624 28.512 23.712 28.56C23.136 28.608 22.752 28.848 22.464 29.376C21.216 31.68 19.92 33.984 18.624 36.288C17.952 37.488 17.28 38.688 16.464 39.84C15.936 40.656 15.552 41.568 15.072 42.48C14.016 44.4 12.912 46.32 12.144 48.384C11.904 49.104 11.424 49.728 11.04 50.4C10.56 51.312 10.08 52.272 9.888 53.328C9.744 54.384 9.216 54.576 8.256 54.144C7.152 53.664 6.672 52.608 7.104 51.456C7.344 50.832 7.584 50.208 7.776 49.584C7.92 49.248 8.064 48.912 8.4 48.816C8.592 48.768 8.88 48.864 9.024 48.576C9.168 48.24 8.88 48.24 8.736 48.048C8.592 47.808 8.688 47.472 8.832 47.232C10.08 45.024 10.848 42.624 12.096 40.368C12.432 39.792 12.528 39.12 12.816 38.496C13.824 36.384 14.928 34.224 15.936 32.064C16.224 31.536 16.56 31.008 16.608 30.336C15.984 30.096 15.408 30.384 14.784 30.528C13.728 30.72 12.672 31.008 11.568 31.296C9.648 31.776 7.776 32.496 5.952 33.36C5.424 33.6 4.896 33.888 4.32 33.936C3.888 33.984 3.552 34.224 3.264 34.56C2.736 35.136 2.448 35.184 1.776 34.8C1.248 34.464 0.72 34.176 0.384 33.6C0.048 32.928 0 32.496 0.384 31.872C0.768 31.248 1.296 30.816 1.968 30.48C4.512 29.232 7.2 28.416 9.936 27.648C10.512 27.504 11.184 27.456 11.76 27.36C12.96 27.072 14.208 27.168 15.36 26.736C16.032 26.448 16.848 26.4 17.616 26.352C18.816 26.256 19.536 25.632 20.016 24.576C20.784 23.04 21.6 21.552 22.464 20.016C24.384 16.416 26.4 12.768 28.368 9.168C28.752 8.448 29.088 7.728 29.472 7.008C30.384 5.136 31.488 3.408 32.688 1.728C32.832 1.536 33.024 1.392 33.168 1.2C33.36 1.008 33.552 0.960001 33.792 1.056C35.088 1.44 35.952 2.304 36.336 3.552C36.576 4.224 36.288 4.944 35.904 5.568C34.944 7.008 33.936 8.4 33.024 9.888C32.016 11.568 31.2 13.344 30.144 15.024C28.8 17.04 27.984 19.392 26.736 21.504C26.208 22.368 25.68 23.28 25.2 24.24C24.912 24.768 25.056 25.008 25.68 25.056C27.744 25.152 29.76 25.248 31.824 25.008C33.408 24.864 34.992 24.768 36.576 25.104C36.912 25.2 37.296 25.2 37.68 25.296C38.688 25.44 39.312 25.2 39.84 24.144C40.896 21.984 42.144 19.824 43.44 17.76C44.976 15.312 46.464 12.768 48.192 10.416C49.2 9.072 50.016 7.584 51.072 6.336C52.416 4.704 53.808 3.12 55.344 1.68C56.4 0.624002 58.512 1.104 59.136 2.496C59.424 3.12 59.28 3.744 58.8 4.176C57.312 5.52 56.256 7.2 54.912 8.592C54.24 9.312 53.52 10.08 53.472 11.184C53.472 11.52 53.232 11.712 53.04 11.904C51.12 13.872 49.776 16.272 48.336 18.576C48.336 18.624 48.288 18.672 48.288 18.72C47.232 21.408 45.408 23.712 44.256 26.304C44.16 26.592 44.016 26.832 43.872 27.072C43.632 27.504 43.728 27.936 43.968 28.32C44.064 28.464 44.208 28.608 44.304 28.752C45.024 29.904 44.976 30.768 44.064 31.728C43.632 32.112 43.392 32.544 43.152 33.024C43.056 33.312 42.912 33.696 42.48 33.6C42.096 33.552 41.76 33.312 41.664 32.928C41.616 32.784 41.664 32.64 41.616 32.496C41.616 32.352 41.664 32.16 41.424 32.208C41.328 32.208 41.28 32.304 41.232 32.4C40.848 33.12 40.464 33.792 40.08 34.56C39.648 35.472 39.216 36.336 38.688 37.2C38.256 37.872 37.824 38.544 37.68 39.408C37.536 40.032 37.344 40.704 36.816 41.184C36.48 41.472 36.528 41.856 36.384 42.192C36.192 42.912 36.192 43.728 35.52 44.256C35.328 44.4 35.328 44.688 35.28 44.928C35.184 45.216 35.184 45.456 34.992 45.744C34.128 47.232 33.888 48.96 33.552 50.64C33.456 51.072 33.312 51.504 33.312 51.936C33.216 53.04 32.976 54.24 34.32 54.96C34.464 55.008 34.512 55.248 34.464 55.44C34.416 55.728 34.176 55.728 34.032 55.728C32.112 55.632 30.096 54.768 29.76 52.272C29.328 49.344 29.52 46.416 30.912 43.728C31.008 43.488 31.104 43.296 31.152 43.056C31.872 40.656 33.024 38.448 34.032 36.144C34.944 33.936 36.144 31.872 37.056 29.664C37.248 29.136 37.536 28.608 37.776 28.08C37.92 27.792 37.776 27.552 37.392 27.504C37.008 27.456 36.624 27.456 36.24 27.456C35.328 27.504 34.368 27.552 33.408 27.6C33.408 27.6 33.408 27.6 33.408 27.648ZM27.6 16.08C27.648 16.08 27.648 16.032 27.696 16.032C27.6 15.984 27.6 15.984 27.648 16.08H27.552H27.6ZM11.472 43.392V43.344V43.392ZM33.888 38.064C34.128 37.968 34.176 37.776 34.128 37.536C34.176 37.488 34.224 37.488 34.272 37.44C34.272 37.44 34.272 37.392 34.32 37.392C34.272 37.44 34.224 37.488 34.176 37.536C34.08 37.728 33.984 37.92 33.888 38.112V38.16V38.064ZM10.272 45.6C10.32 45.552 10.368 45.552 10.416 45.504C10.416 45.504 10.416 45.456 10.464 45.408C10.416 45.504 10.368 45.552 10.32 45.648C10.272 45.696 10.176 45.744 10.128 45.792C10.128 45.84 10.176 45.888 10.176 45.888C10.368 45.84 10.32 45.696 10.272 45.6ZM26.832 17.856C26.256 18.048 26.112 18.624 25.872 19.056C25.152 20.304 24.48 21.552 23.808 22.8C23.52 23.376 23.232 23.904 22.944 24.432C22.848 24.624 22.704 24.816 22.944 24.96C23.136 25.056 23.28 24.912 23.376 24.72C24.72 22.512 25.92 20.256 26.784 17.808C26.832 17.76 26.832 17.664 26.88 17.616C26.88 17.568 26.832 17.568 26.832 17.52C26.832 17.664 26.832 17.76 26.832 17.856ZM37.056 35.808C37.584 35.472 37.968 34.992 38.16 34.416C38.832 32.544 39.744 30.816 40.656 29.088C40.752 28.896 40.944 28.704 40.896 28.464C40.896 28.368 40.848 28.224 40.8 28.176C40.752 28.176 40.56 28.176 40.56 28.224C40.416 28.368 40.32 28.512 40.224 28.704C39.216 30.528 38.496 32.496 37.44 34.368C37.2 34.8 36.96 35.328 37.104 35.856C36.816 36 36.768 36.192 36.816 36.48C36.72 36.576 36.576 36.624 36.528 36.72C35.904 37.968 35.136 39.12 34.608 40.416C33.888 42.24 33.168 44.064 32.448 45.888C31.872 47.472 31.872 49.2 31.728 50.832C31.728 50.928 31.776 51.024 31.824 51.072C31.872 51.024 31.968 50.976 31.968 50.928C31.92 49.344 32.496 47.904 32.976 46.464C33.792 43.968 34.896 41.568 35.952 39.168C36.336 38.304 36.816 37.44 36.816 36.432C37.104 36.336 37.104 36.096 37.056 35.808ZM12.912 44.496C13.632 44.304 13.728 43.632 13.968 43.104C15.12 40.464 16.32 37.872 17.712 35.376C18.528 33.84 19.2 32.256 20.112 30.816C20.304 30.528 20.4 30.192 20.544 29.904C20.592 29.76 20.688 29.616 20.544 29.52C20.496 29.472 20.256 29.568 20.208 29.664C19.824 30.288 19.488 30.864 19.152 31.536C18.48 32.736 17.664 33.84 17.088 35.136C16.752 35.904 16.416 36.72 15.936 37.44C14.784 39.264 14.064 41.28 13.296 43.296C13.152 43.68 12.816 44.016 12.912 44.496C12.72 44.544 12.576 44.64 12.816 44.784C12.864 44.832 12.96 44.64 12.912 44.496ZM46.8 17.808C46.752 17.76 46.752 17.712 46.704 17.712C46.656 17.712 46.608 17.712 46.608 17.712C46.416 17.952 46.176 18.144 46.032 18.384C44.496 20.784 43.152 23.28 41.856 25.824C41.808 25.872 41.808 25.92 41.808 25.968C41.808 26.064 41.856 26.112 41.856 26.208C41.952 26.16 42.048 26.16 42.096 26.064C42.24 25.92 42.336 25.776 42.432 25.632C43.344 24 44.256 22.368 45.168 20.784C45.648 19.92 46.176 19.056 46.656 18.192C46.704 18.096 46.752 17.952 46.8 17.808ZM12.144 41.52C12.096 41.424 12.048 41.424 11.952 41.472C11.904 41.472 11.904 41.52 11.856 41.568C11.856 41.664 11.904 41.76 12 41.712C12.096 41.712 12.096 41.616 12.144 41.52ZM31.728 43.728L31.68 43.632L31.632 43.728H31.728ZM47.28 16.944L47.328 16.848H47.28V16.944ZM31.776 51.984L31.728 52.032H31.776V51.984ZM73.0886 36.768L73.0406 36.72C73.0886 37.104 72.7526 37.344 72.5606 37.632C72.3206 37.968 71.9366 38.208 71.8406 38.64C71.6486 38.688 71.5526 38.784 71.5046 38.976C71.2646 38.976 71.0246 39.024 70.8326 39.216V39.264V39.168C71.0726 39.216 71.3126 39.168 71.4566 38.928C71.6006 38.832 71.6966 38.688 71.7926 38.592C72.6086 38.352 71.8406 38.688 72.4646 38.112C74.2886 36.384 75.2006 35.52 77.1686 33.888C77.4566 33.648 77.8406 33.408 77.8406 32.928C77.9366 32.88 78.1286 33.072 78.1286 32.784C78.0326 32.832 77.9846 32.88 77.8886 32.928C77.3126 33.216 76.7846 33.552 76.3526 34.032C76.0646 34.32 75.7286 34.56 75.2966 34.656C75.2486 34.704 75.1526 34.704 75.1526 34.656C75.1046 34.56 75.0566 34.464 75.0566 34.368C75.2006 34.176 75.2966 33.888 75.4886 33.744C76.3046 32.976 77.1686 32.208 78.0326 31.44C78.6566 30.912 79.3286 31.104 80.0006 31.296C80.0966 31.296 80.1926 31.392 80.2406 31.44C80.5766 31.968 80.4806 32.592 80.5766 33.12C80.6246 33.504 80.3846 33.84 80.0486 34.032C78.9926 34.8 78.1286 35.808 76.9766 36.432C76.8326 36.528 76.6886 36.624 76.6406 36.768C75.1046 38.736 75.3446 38.4 73.5686 40.08C71.4566 42 69.1526 43.632 66.8006 45.168C65.5526 45.984 64.1606 45.936 63.0566 45.024C62.3366 44.4 61.7606 43.632 61.3766 42.768C60.9926 41.952 60.9446 41.04 61.1366 40.128C61.4726 38.88 61.9046 37.632 62.4326 36.432C62.4806 36.288 62.5286 36.096 62.4326 36C62.2886 35.76 62.0966 35.904 61.9046 36C61.4246 36.336 60.9446 36.672 60.5126 37.008C60.2726 37.152 60.1286 37.392 59.9366 37.584C59.3606 38.112 58.6406 38.4 57.9206 38.64C57.8726 39.408 57.3446 39.936 56.8166 40.464C56.3846 40.896 56.0006 41.376 55.3766 41.664C55.0886 41.808 54.8486 42.096 54.5606 42.384C53.8886 43.152 53.0726 43.824 52.1606 44.352C51.9206 44.496 51.7286 44.64 51.4886 44.784C49.5686 45.744 48.3206 45.168 47.4566 43.392C46.4486 41.424 46.2566 39.36 47.5046 37.248C49.0406 34.752 50.5766 32.256 52.4966 30.048C54.3206 27.984 56.2406 26.064 58.3526 24.336C60.2726 22.8 62.3366 21.504 64.8806 21.072C66.0806 20.88 67.1846 20.976 68.2886 21.312C70.3526 21.984 72.2726 22.896 73.4726 24.912C73.6166 25.2 73.9046 25.488 73.6646 25.92C73.5206 26.16 72.9926 26.16 72.5606 25.824C72.2246 25.584 71.9366 25.344 71.7446 25.056C71.1206 24.048 70.1126 23.952 69.1046 24.144C68.0006 24.384 66.8966 24.72 65.7926 25.056C65.2646 25.248 64.6886 25.536 64.2566 25.872C63.2006 26.784 62.0486 27.6 60.9446 28.512C58.4966 30.576 56.3366 32.928 54.2726 35.376C52.8326 37.104 51.6326 39.024 50.5766 40.992C50.5286 41.136 50.5286 41.328 50.5766 41.424C50.6246 41.616 50.8166 41.568 50.9606 41.52C51.4886 41.472 51.8246 41.136 52.1606 40.8C53.3606 39.696 54.6086 38.688 55.7606 37.536C57.4406 36 59.4086 34.896 61.2326 33.552C61.8086 33.12 62.1926 32.448 63.0086 32.352L62.9606 32.304C62.4326 33.024 61.8086 33.6 61.1366 34.176C60.1766 34.848 59.2646 35.664 58.3526 36.384C56.9606 37.44 55.7606 38.784 54.3206 39.792C53.6486 40.272 52.9766 40.848 52.9286 41.76C52.7846 41.856 52.8326 42 52.8806 42.144C52.9766 42.192 53.0246 42.24 53.1206 42.24C53.2166 42.288 53.3126 42.24 53.3606 42.24C53.3126 42.192 53.2166 42.144 53.1686 42.144C53.0726 42.144 52.9286 42.144 52.8326 42.144C52.8806 42 52.8806 41.856 52.8806 41.712C53.5526 41.712 54.0326 41.28 54.5126 40.848C55.5206 39.984 56.5286 39.072 57.5846 38.208C58.9286 37.104 60.2246 35.904 61.6646 34.896C62.9126 33.984 64.0646 32.88 65.2166 31.824C65.7926 31.344 65.9846 30.72 65.7446 30.672C65.3606 30.624 65.1206 31.008 64.8326 31.152C64.6406 31.248 64.4486 31.296 64.2566 31.344L64.3046 31.392C64.7846 30.672 65.3126 29.952 65.8406 29.28C65.9846 29.088 66.1286 28.992 66.3686 28.992C66.6566 28.992 66.9446 28.992 67.1366 28.848C67.9526 28.32 68.5766 28.656 69.1526 29.28C69.3446 29.472 69.5846 29.568 69.7766 29.712C70.3046 30.096 70.4006 30.624 70.2566 31.248C69.8246 33.216 69.0086 34.992 67.7126 36.528C66.6086 37.92 65.7926 39.504 65.0726 41.136C65.0246 41.28 65.0246 41.472 65.0726 41.568C65.2166 41.808 65.4566 41.712 65.6486 41.616C67.2326 40.752 68.6246 39.696 70.0166 38.544C70.6406 38.016 71.2646 37.44 71.9366 36.912C72.2726 36.672 72.6566 36.48 73.0886 36.768ZM55.7606 28.512C55.8566 28.416 55.9526 28.32 56.0486 28.224C56.1446 28.08 56.2886 27.984 56.3846 27.888C56.5286 27.84 56.6246 27.744 56.6726 27.6C56.8646 27.552 56.9606 27.408 57.0086 27.264C57.6326 27.216 57.9206 26.784 58.2566 26.352C58.3526 26.256 58.4966 26.112 58.5926 26.016C58.6886 25.872 58.7846 25.776 58.8806 25.68L58.9766 25.632L58.9286 25.68C58.8326 25.824 58.7366 25.92 58.5926 26.016C58.4966 26.16 58.4006 26.256 58.3046 26.4C57.6326 26.352 57.2006 26.688 57.0086 27.312C56.8646 27.312 56.7686 27.456 56.7206 27.6C56.5766 27.648 56.4326 27.744 56.3846 27.936C56.2886 28.032 56.1926 28.128 56.0966 28.224C56.0006 28.368 55.9046 28.464 55.8086 28.56C55.6646 28.656 55.5686 28.8 55.4246 28.896C55.3286 28.992 55.2326 29.088 55.1366 29.184C55.0406 29.28 54.9446 29.376 54.8486 29.472C54.7046 29.616 54.6086 29.712 54.4646 29.808C54.3686 29.904 54.2726 30 54.1766 30.096C54.0806 30.192 53.9846 30.288 53.8886 30.432C53.7446 30.528 53.6486 30.624 53.5046 30.768C53.4086 30.816 53.3126 30.912 53.1686 31.008L53.2166 31.056L53.1686 30.96C53.2646 30.912 53.3606 30.816 53.5046 30.72C53.6006 30.624 53.6966 30.48 53.8406 30.384C53.9366 30.288 54.0326 30.192 54.1766 30.096C54.2726 30 54.3686 29.904 54.4646 29.808C54.5606 29.664 54.7046 29.568 54.8006 29.472C54.8966 29.376 55.0406 29.28 55.1366 29.136C55.2326 29.04 55.3286 28.944 55.4246 28.896C55.5206 28.752 55.6646 28.656 55.7606 28.512ZM60.1766 24.768L60.0806 24.816L60.1286 24.768C60.2246 24.624 60.3686 24.528 60.4646 24.432C60.7046 24.384 60.9446 24.384 61.0886 24.144C61.2326 24.048 61.3766 23.952 61.3766 23.76C61.6646 23.808 61.9046 23.712 62.0486 23.52C62.1926 23.472 62.3366 23.52 62.3366 23.376C62.3366 23.328 62.2406 23.328 62.2406 23.328C62.1926 23.376 62.1446 23.472 62.0966 23.568C61.8566 23.568 61.6166 23.616 61.4246 23.808C61.3286 23.952 61.2326 24.048 61.0886 24.192C60.8486 24.144 60.6566 24.24 60.5126 24.432C60.3686 24.576 60.2726 24.672 60.1766 24.768ZM52.3046 32.304L52.3526 32.352C52.4486 32.208 52.5446 32.112 52.6406 32.016L52.5926 31.968C52.4966 32.112 52.4006 32.208 52.3046 32.304ZM74.4806 35.04L74.4326 34.992C73.8086 36.192 74.3846 36.336 73.0406 36.72L73.0886 36.768C73.3286 35.376 72.9926 35.616 74.0006 34.944C74.0966 34.896 74.2886 34.992 74.4806 35.04ZM62.9606 32.304L63.0086 32.352C63.2486 31.776 63.7286 31.536 64.3046 31.392L64.2566 31.344C63.8726 31.728 63.6326 32.256 62.9606 32.304ZM74.4806 35.04L74.4326 34.992C74.8166 34.944 74.1446 35.616 74.1926 35.184C74.1926 35.136 74.0966 35.04 74.0966 35.04C73.6646 35.136 74.5766 34.704 74.4806 35.04ZM81.1643 35.184C81.3083 35.088 81.5483 35.04 81.6443 34.896C83.7563 32.352 86.2043 30.192 88.4123 27.744C88.8443 27.264 89.2763 26.736 89.7083 26.208C90.0923 25.824 90.4283 25.44 90.8603 25.104C91.2923 24.816 91.6763 24.432 92.0123 24.048C92.7323 23.088 93.6923 22.416 94.6523 21.792C95.8523 21.024 96.9563 21.504 98.0123 22.128C98.9243 22.704 99.1163 23.664 98.9723 24.72C98.8763 25.44 98.7323 26.16 98.3962 26.784C97.7723 28.032 97.3403 29.376 96.5723 30.528C95.9003 31.536 95.6123 32.736 94.9883 33.792C93.8363 35.76 92.7323 37.824 91.6763 39.888C91.3403 40.416 90.9083 40.992 91.1963 41.76C91.9163 41.712 92.3483 41.184 92.7803 40.8C95.9003 38.064 99.2123 35.52 102.428 32.928C103.244 32.256 103.82 31.488 104.348 30.576C105.548 28.416 106.844 26.256 108.044 24.048C108.332 23.616 108.572 23.136 108.764 22.656C109.532 21.072 110.828 20.928 111.932 21.888C112.7 22.512 112.844 23.52 112.268 24.624C110.828 27.552 109.292 30.432 107.708 33.312C106.796 34.944 105.98 36.624 104.78 38.112C104.636 38.304 104.54 38.544 104.492 38.736C104.444 38.832 104.492 38.976 104.54 39.024C104.588 39.024 104.732 39.024 104.78 38.976C105.212 38.736 105.596 38.448 105.884 38.064C107.228 36.192 108.908 34.56 110.588 32.976C111.596 32.064 112.364 30.96 113.324 30C114.572 28.656 115.724 27.216 116.924 25.872C117.644 25.104 118.508 24.432 119.276 23.712C119.66 23.328 120.14 23.088 120.668 22.992C120.908 22.944 121.196 22.848 121.34 22.944C122.06 23.328 122.828 23.376 123.5 23.76C124.412 24.336 124.892 25.296 124.892 26.304C124.94 27.168 124.844 28.032 124.604 28.848C124.076 30.48 123.356 31.968 122.492 33.456C121.484 35.28 120.62 37.152 119.9 39.12C119.66 39.744 119.42 40.368 119.948 40.992C120.092 41.184 119.996 41.376 119.852 41.52C119.372 41.856 119.708 42.048 119.9 42.336C120.14 42.624 120.38 42.624 120.668 42.48C121.292 42.096 121.916 41.76 122.492 41.328C124.508 39.84 126.476 38.256 128.3 36.528C129.596 35.232 130.892 33.936 132.236 32.688C132.812 32.16 133.388 31.68 133.964 31.152C134.108 31.056 134.3 30.96 134.492 31.008C134.78 31.152 134.78 31.392 134.78 31.632C134.684 32.112 134.588 32.592 134.3 32.976C133.82 33.6 133.484 34.32 133.1 34.944C132.236 36.384 131.228 37.632 130.076 38.832C128.78 40.128 127.532 41.424 126.236 42.768C125.66 43.344 125.084 43.92 124.46 44.448C123.452 45.264 122.252 45.744 121.004 45.6C119.708 45.504 118.556 44.88 117.596 43.872C116.54 42.816 116.204 41.52 116.204 40.08C116.204 38.544 116.588 37.104 117.068 35.712C117.836 33.696 118.7 31.68 119.66 29.712C120.188 28.56 120.716 27.36 121.004 26.064C121.052 25.872 121.1 25.68 120.908 25.584C120.764 25.536 120.572 25.584 120.476 25.68C119.756 26.304 118.892 26.832 118.316 27.552C117.548 28.512 116.636 29.28 115.82 30.192C113.852 32.352 111.74 34.416 110.06 36.864C109.724 37.344 109.244 37.776 108.86 38.256C107.42 40.032 105.98 41.76 104.636 43.536C104.204 44.112 103.772 44.16 103.1 44.016C102.188 43.824 101.516 43.2 100.796 42.624C100.46 42.384 100.364 41.904 100.268 41.472C100.124 40.56 100.268 39.648 100.508 38.784C100.844 37.68 101.228 36.576 101.564 35.472C101.612 35.376 101.708 35.184 101.66 35.136C101.564 34.992 101.42 35.136 101.324 35.184C100.268 36.048 99.2603 36.96 98.2043 37.776C97.1003 38.688 95.9963 39.696 95.0843 40.8C94.9883 40.944 94.8923 41.088 95.2283 41.184C95.7563 41.28 95.8043 41.376 95.4683 41.664C94.4123 42.768 93.3083 43.824 92.2043 44.88C91.8203 45.216 91.4363 45.264 91.0043 45.12C89.8523 44.736 88.7963 44.256 87.9323 43.344C87.5963 42.96 87.4043 42.576 87.3563 42.048C87.3563 41.376 87.2123 40.704 87.4043 40.032C87.5483 39.504 87.3083 38.976 87.4523 38.496C87.5963 37.968 87.6923 37.44 87.9323 36.96C88.7963 35.184 89.6123 33.408 90.5723 31.68C91.7723 29.616 92.7803 27.504 94.1243 25.536C94.3163 25.248 94.3643 24.912 94.3163 24.576C94.3163 24.48 94.2203 24.432 94.1723 24.384C94.1723 24.336 94.0763 24.384 94.0283 24.432C93.1643 25.248 92.2523 26.016 91.4363 26.928C90.5243 27.984 89.5643 28.992 88.6043 29.952C85.9643 32.688 83.5643 35.568 81.3563 38.64C80.1562 40.368 78.8123 42 77.6123 43.728C77.1323 44.448 76.6043 44.64 75.8843 44.16C74.9243 43.584 73.9642 42.768 74.2043 41.424C74.3963 39.936 74.6363 38.4 75.1643 36.912C75.7402 35.232 76.6523 33.696 77.4203 32.112C77.9003 31.104 78.5723 30.24 79.1963 29.28C79.3403 28.992 79.5803 28.752 79.7243 28.464C80.9243 26.112 82.7483 24.24 84.0923 21.984C84.7163 20.928 86.4443 20.88 87.2123 21.792C87.5003 22.176 87.5483 22.608 87.4043 23.04C87.1643 23.856 86.9243 24.72 86.5403 25.488C86.1083 26.496 85.5323 27.456 85.0043 28.416C83.8523 30.384 82.7003 32.352 81.5003 34.272C81.3563 34.56 81.1643 34.848 81.1643 35.232C80.8283 35.328 80.6843 35.616 80.5403 35.856C80.4922 35.904 80.5403 36.048 80.5403 36.096C80.5883 36.096 80.6843 36.096 80.7323 36.048C80.9243 35.76 81.1643 35.568 81.1643 35.184ZM112.172 32.928V32.88V32.928ZM119.708 32.928C119.564 32.928 119.564 32.976 119.66 33.024C119.66 32.976 119.66 32.928 119.66 32.88C119.756 32.784 119.9 32.688 119.996 32.592C120.044 32.496 120.284 32.496 120.044 32.352C120.044 32.448 120.044 32.544 119.996 32.592C119.9 32.688 119.804 32.832 119.708 32.928ZM108.092 26.496H108.14V26.448L108.092 26.496ZM113.9 30.816L113.852 30.912L113.9 30.864C113.996 30.768 114.14 30.672 114.236 30.576H114.188C114.092 30.624 113.996 30.72 113.9 30.816ZM105.548 34.08C105.5 34.128 105.404 34.176 105.356 34.224C105.308 34.224 105.356 34.32 105.356 34.32C105.5 34.32 105.5 34.176 105.5 34.08C105.548 34.032 105.596 33.936 105.644 33.888C105.644 33.84 105.644 33.792 105.596 33.792C105.596 33.888 105.548 33.984 105.548 34.08ZM104.636 35.808C104.396 35.952 104.396 36.144 104.396 36.384C104.252 36.48 104.156 36.576 104.06 36.672C104.012 36.72 103.964 36.768 103.964 36.816C103.964 36.816 103.964 36.864 103.964 36.912C103.964 36.816 104.012 36.72 104.012 36.672C104.156 36.576 104.252 36.432 104.348 36.336C104.54 36.192 104.636 36 104.636 35.808L104.684 35.76L104.636 35.808ZM115.628 28.848C115.436 29.136 114.86 29.184 115.052 29.712C115.388 29.52 115.58 29.232 115.628 28.848C115.724 28.704 115.82 28.608 115.916 28.512C116.684 28.08 117.116 27.312 117.74 26.736C117.788 26.736 117.74 26.592 117.74 26.496H117.644C117.068 27.168 116.156 27.6 115.964 28.56C115.82 28.656 115.724 28.752 115.628 28.848ZM118.508 35.472C118.94 35.136 119.084 34.608 119.324 34.128C119.324 34.08 119.276 33.936 119.228 33.888C119.18 33.936 119.084 33.936 119.036 34.032C118.748 34.464 118.556 34.944 118.556 35.472H118.508ZM119.948 36.096C119.996 36.048 120.044 36 120.044 36C120.044 35.904 119.996 35.856 119.948 35.808C120.188 35.52 120.38 35.28 120.572 34.992C121.292 33.84 121.724 32.544 122.156 31.296C122.348 30.816 122.588 30.336 122.588 29.76C122.54 29.616 122.54 29.472 122.348 29.472C122.252 29.52 122.156 29.568 122.156 29.664C121.868 30.864 121.196 31.872 120.764 32.976C120.38 33.888 119.852 34.8 119.708 35.808C118.892 36.72 118.748 37.824 118.844 38.976C118.412 39.456 118.316 39.936 118.556 39.84C118.94 39.648 118.796 39.264 118.796 38.928C119.372 38.064 119.9 37.152 119.948 36.096ZM132.188 34.944C131.804 34.944 131.516 35.136 131.276 35.328C130.604 35.952 129.98 36.528 129.308 37.152C129.02 37.44 128.828 37.728 128.684 38.112V38.064C128.876 38.112 129.068 38.256 128.876 38.448C128.54 38.88 128.156 39.264 127.82 39.648C127.772 39.696 127.724 39.84 127.772 39.936C127.868 40.08 128.012 40.032 128.108 39.936C129.452 38.736 130.7 37.44 131.708 36C131.948 35.664 132.092 35.328 132.14 34.944C132.188 34.848 132.38 34.8 132.188 34.704C132.188 34.8 132.188 34.848 132.188 34.944ZM118.268 36.72C118.22 36.576 118.172 36.48 118.124 36.432C118.076 36.48 117.98 36.48 117.932 36.576C117.836 36.72 117.788 36.912 117.788 37.104C117.74 37.2 117.692 37.392 117.884 37.392C117.98 37.392 118.076 37.248 118.076 37.2C118.172 37.008 118.22 36.864 118.268 36.72ZM94.8923 23.76C94.8923 23.808 94.8923 23.856 94.8443 23.904C94.8923 23.904 94.9403 23.904 94.9403 23.904C94.9883 23.904 94.9883 23.856 94.9883 23.808C94.9883 23.808 94.9403 23.808 94.8923 23.76ZM119.996 35.76C119.9 35.76 119.804 35.76 119.66 35.76C119.756 35.904 119.9 36 119.996 36.096C119.996 36 119.996 35.904 119.996 35.76ZM155.682 36.768L155.634 36.72C155.682 37.104 155.346 37.344 155.154 37.632C154.914 37.968 154.53 38.208 154.434 38.64C154.242 38.688 154.146 38.784 154.098 38.976C153.858 38.976 153.618 39.024 153.426 39.216V39.264V39.168C153.666 39.216 153.906 39.168 154.05 38.928C154.194 38.832 154.29 38.688 154.386 38.592C155.202 38.352 154.434 38.688 155.058 38.112C156.882 36.384 157.794 35.52 159.762 33.888C160.05 33.648 160.434 33.408 160.434 32.928C160.53 32.88 160.722 33.072 160.722 32.784C160.626 32.832 160.578 32.88 160.482 32.928C159.906 33.216 159.378 33.552 158.946 34.032C158.658 34.32 158.322 34.56 157.89 34.656C157.842 34.704 157.746 34.704 157.746 34.656C157.698 34.56 157.65 34.464 157.65 34.368C157.794 34.176 157.89 33.888 158.082 33.744C158.898 32.976 159.762 32.208 160.626 31.44C161.25 30.912 161.922 31.104 162.594 31.296C162.69 31.296 162.786 31.392 162.834 31.44C163.17 31.968 163.074 32.592 163.17 33.12C163.218 33.504 162.978 33.84 162.642 34.032C161.586 34.8 160.722 35.808 159.57 36.432C159.426 36.528 159.282 36.624 159.234 36.768C157.698 38.736 157.938 38.4 156.162 40.08C154.05 42 151.746 43.632 149.394 45.168C148.146 45.984 146.754 45.936 145.65 45.024C144.93 44.4 144.354 43.632 143.97 42.768C143.586 41.952 143.538 41.04 143.73 40.128C144.066 38.88 144.498 37.632 145.026 36.432C145.074 36.288 145.122 36.096 145.026 36C144.882 35.76 144.69 35.904 144.498 36C144.018 36.336 143.538 36.672 143.106 37.008C142.866 37.152 142.722 37.392 142.53 37.584C141.954 38.112 141.234 38.4 140.514 38.64C140.466 39.408 139.938 39.936 139.41 40.464C138.978 40.896 138.594 41.376 137.97 41.664C137.682 41.808 137.442 42.096 137.154 42.384C136.482 43.152 135.666 43.824 134.754 44.352C134.514 44.496 134.322 44.64 134.082 44.784C132.162 45.744 130.914 45.168 130.05 43.392C129.042 41.424 128.85 39.36 130.098 37.248C131.634 34.752 133.17 32.256 135.09 30.048C136.914 27.984 138.834 26.064 140.946 24.336C142.866 22.8 144.93 21.504 147.474 21.072C148.674 20.88 149.778 20.976 150.882 21.312C152.946 21.984 154.866 22.896 156.066 24.912C156.21 25.2 156.498 25.488 156.258 25.92C156.114 26.16 155.586 26.16 155.154 25.824C154.818 25.584 154.53 25.344 154.338 25.056C153.714 24.048 152.706 23.952 151.698 24.144C150.594 24.384 149.49 24.72 148.386 25.056C147.858 25.248 147.282 25.536 146.85 25.872C145.794 26.784 144.642 27.6 143.538 28.512C141.09 30.576 138.93 32.928 136.866 35.376C135.426 37.104 134.226 39.024 133.17 40.992C133.122 41.136 133.122 41.328 133.17 41.424C133.218 41.616 133.41 41.568 133.554 41.52C134.082 41.472 134.418 41.136 134.754 40.8C135.954 39.696 137.202 38.688 138.354 37.536C140.034 36 142.002 34.896 143.826 33.552C144.402 33.12 144.786 32.448 145.602 32.352L145.554 32.304C145.026 33.024 144.402 33.6 143.73 34.176C142.77 34.848 141.858 35.664 140.946 36.384C139.554 37.44 138.354 38.784 136.914 39.792C136.242 40.272 135.57 40.848 135.522 41.76C135.378 41.856 135.426 42 135.474 42.144C135.57 42.192 135.618 42.24 135.714 42.24C135.81 42.288 135.906 42.24 135.954 42.24C135.906 42.192 135.81 42.144 135.762 42.144C135.666 42.144 135.522 42.144 135.426 42.144C135.474 42 135.474 41.856 135.474 41.712C136.146 41.712 136.626 41.28 137.106 40.848C138.114 39.984 139.122 39.072 140.178 38.208C141.522 37.104 142.818 35.904 144.258 34.896C145.506 33.984 146.658 32.88 147.81 31.824C148.386 31.344 148.578 30.72 148.338 30.672C147.954 30.624 147.714 31.008 147.426 31.152C147.234 31.248 147.042 31.296 146.85 31.344L146.898 31.392C147.378 30.672 147.906 29.952 148.434 29.28C148.578 29.088 148.722 28.992 148.962 28.992C149.25 28.992 149.538 28.992 149.73 28.848C150.546 28.32 151.17 28.656 151.746 29.28C151.938 29.472 152.178 29.568 152.37 29.712C152.898 30.096 152.994 30.624 152.85 31.248C152.418 33.216 151.602 34.992 150.306 36.528C149.202 37.92 148.386 39.504 147.666 41.136C147.618 41.28 147.618 41.472 147.666 41.568C147.81 41.808 148.05 41.712 148.242 41.616C149.826 40.752 151.218 39.696 152.61 38.544C153.234 38.016 153.858 37.44 154.53 36.912C154.866 36.672 155.25 36.48 155.682 36.768ZM138.354 28.512C138.45 28.416 138.546 28.32 138.642 28.224C138.738 28.08 138.882 27.984 138.978 27.888C139.122 27.84 139.218 27.744 139.266 27.6C139.458 27.552 139.554 27.408 139.602 27.264C140.226 27.216 140.514 26.784 140.85 26.352C140.946 26.256 141.09 26.112 141.186 26.016C141.282 25.872 141.378 25.776 141.474 25.68L141.57 25.632L141.522 25.68C141.426 25.824 141.33 25.92 141.186 26.016C141.09 26.16 140.994 26.256 140.898 26.4C140.226 26.352 139.794 26.688 139.602 27.312C139.458 27.312 139.362 27.456 139.314 27.6C139.17 27.648 139.026 27.744 138.978 27.936C138.882 28.032 138.786 28.128 138.69 28.224C138.594 28.368 138.498 28.464 138.402 28.56C138.258 28.656 138.162 28.8 138.018 28.896C137.922 28.992 137.826 29.088 137.73 29.184C137.634 29.28 137.538 29.376 137.442 29.472C137.298 29.616 137.202 29.712 137.058 29.808C136.962 29.904 136.866 30 136.77 30.096C136.674 30.192 136.578 30.288 136.482 30.432C136.338 30.528 136.242 30.624 136.098 30.768C136.002 30.816 135.906 30.912 135.762 31.008L135.81 31.056L135.762 30.96C135.858 30.912 135.954 30.816 136.098 30.72C136.194 30.624 136.29 30.48 136.434 30.384C136.53 30.288 136.626 30.192 136.77 30.096C136.866 30 136.962 29.904 137.058 29.808C137.154 29.664 137.298 29.568 137.394 29.472C137.49 29.376 137.634 29.28 137.73 29.136C137.826 29.04 137.922 28.944 138.018 28.896C138.114 28.752 138.258 28.656 138.354 28.512ZM142.77 24.768L142.674 24.816L142.722 24.768C142.818 24.624 142.962 24.528 143.058 24.432C143.298 24.384 143.538 24.384 143.682 24.144C143.826 24.048 143.97 23.952 143.97 23.76C144.258 23.808 144.498 23.712 144.642 23.52C144.786 23.472 144.93 23.52 144.93 23.376C144.93 23.328 144.834 23.328 144.834 23.328C144.786 23.376 144.738 23.472 144.69 23.568C144.45 23.568 144.21 23.616 144.018 23.808C143.922 23.952 143.826 24.048 143.682 24.192C143.442 24.144 143.25 24.24 143.106 24.432C142.962 24.576 142.866 24.672 142.77 24.768ZM134.898 32.304L134.946 32.352C135.042 32.208 135.138 32.112 135.234 32.016L135.186 31.968C135.09 32.112 134.994 32.208 134.898 32.304ZM157.074 35.04L157.026 34.992C156.402 36.192 156.978 36.336 155.634 36.72L155.682 36.768C155.922 35.376 155.586 35.616 156.594 34.944C156.69 34.896 156.882 34.992 157.074 35.04ZM145.554 32.304L145.602 32.352C145.842 31.776 146.322 31.536 146.898 31.392L146.85 31.344C146.466 31.728 146.226 32.256 145.554 32.304ZM157.074 35.04L157.026 34.992C157.41 34.944 156.738 35.616 156.786 35.184C156.786 35.136 156.69 35.04 156.69 35.04C156.258 35.136 157.17 34.704 157.074 35.04ZM179.022 4.32C179.07 3.984 179.07 3.696 179.118 3.36C179.118 2.448 180.126 2.016 180.942 2.208C182.382 2.544 183.006 3.84 182.43 5.184C181.326 7.92 179.982 10.56 178.302 12.96C177.438 14.16 176.862 15.456 176.238 16.752C175.278 18.768 174.126 20.688 173.07 22.608C172.542 23.568 171.87 24.48 171.486 25.488C171.39 25.776 171.198 26.016 171.006 26.256C170.334 27.12 169.806 28.032 169.374 29.04C168.702 30.576 168.03 32.112 167.022 33.456C166.926 33.552 166.926 33.744 167.022 33.84C167.166 33.984 167.31 33.84 167.406 33.744C168.222 32.976 168.99 32.208 169.758 31.488C172.206 29.136 174.606 26.832 177.102 24.528C178.158 23.568 179.358 22.752 180.51 21.84C181.086 21.36 181.758 21.072 182.478 20.928C182.958 20.832 183.534 20.592 183.918 21.312C184.11 21.648 184.686 21.312 185.07 21.648C186.03 22.608 186.798 23.568 186.894 25.104C186.99 27.12 186.51 28.992 185.79 30.816C184.878 33.072 184.062 35.376 183.246 37.68C182.91 38.64 182.574 39.648 182.478 40.656C182.478 41.184 182.718 41.376 183.15 41.136C183.63 40.944 184.11 40.704 184.494 40.416C186.702 38.784 189.438 37.152 191.118 35.52C192.894 33.792 194.478 31.872 195.918 29.952C196.206 29.568 196.494 29.184 196.83 28.896C197.358 28.416 198.366 28.656 198.51 29.28C198.75 30.192 198.942 31.104 198.27 31.968C196.062 34.656 194.526 36.528 191.886 38.784C190.974 39.6 190.158 40.416 189.39 41.328C188.094 42.816 186.462 43.824 184.734 44.64C183.198 45.264 180.99 44.64 179.886 43.44C179.646 43.152 179.406 42.864 179.118 42.672C178.206 41.952 177.966 40.944 178.062 39.888C178.206 38.832 178.35 37.824 178.59 36.816C179.214 34.368 179.982 31.92 180.942 29.568C181.422 28.416 181.806 27.264 182.094 26.016C182.142 25.824 182.19 25.632 182.238 25.44C182.334 24.912 182.862 24.48 182.574 23.856C181.998 23.856 181.662 24.336 181.23 24.576C179.79 25.536 178.494 26.64 177.294 27.84C176.19 28.992 174.99 30.048 173.742 31.104C173.262 31.536 172.83 32.064 172.35 32.544C170.142 34.848 167.934 37.152 165.774 39.552C164.19 41.232 162.654 43.008 160.734 44.352C160.494 44.544 160.35 44.832 160.206 45.12C159.678 45.792 159.294 45.936 158.67 45.504C158.094 45.072 157.614 44.544 156.99 44.208C156.654 44.016 156.702 43.584 156.894 43.2C157.422 42.24 157.902 41.28 158.382 40.32C158.814 39.408 159.342 38.592 159.726 37.68C160.59 35.904 161.598 34.224 162.606 32.544C162.99 31.872 163.422 31.2 163.71 30.48C164.238 29.136 165.15 27.984 165.774 26.688C167.742 22.608 169.998 18.72 172.254 14.784C173.982 11.664 175.806 8.592 177.63 5.52C177.966 4.944 178.302 4.32 179.07 4.272C179.022 4.8 178.686 5.328 179.022 5.856C178.782 6.048 178.734 6.24 178.734 6.528C178.494 6.576 178.302 6.816 178.206 7.008C178.11 7.248 177.774 7.488 178.014 7.824C178.062 7.824 178.11 7.872 178.158 7.872C178.542 7.824 178.638 7.536 178.686 7.248C178.734 7.008 178.734 6.768 178.734 6.528C178.974 6.384 178.974 6.096 179.022 5.856C179.598 4.992 179.598 4.992 179.022 4.32ZM172.158 30.768C172.062 30.864 171.966 31.008 171.87 31.104C171.774 31.2 171.678 31.296 171.582 31.392C171.438 31.536 171.342 31.632 171.246 31.728C171.15 31.824 171.054 31.92 170.958 32.064C170.814 32.16 170.718 32.256 170.622 32.352C170.526 32.448 170.43 32.544 170.334 32.64C170.238 32.784 170.094 32.88 169.998 32.976C169.662 33.024 169.518 33.312 169.374 33.552C168.51 34.176 167.838 35.04 167.118 35.808C166.878 36.048 166.638 36.288 166.59 36.672C166.494 36.768 166.398 36.912 166.254 37.008V36.96C166.35 36.864 166.446 36.768 166.59 36.672C167.598 35.856 168.414 34.896 169.278 33.984C169.326 33.888 169.326 33.696 169.326 33.552C169.758 33.552 169.95 33.312 169.998 32.928C170.094 32.832 170.19 32.736 170.286 32.64C170.478 32.592 170.574 32.496 170.574 32.304C170.718 32.208 170.814 32.112 170.91 32.016C171.006 31.92 171.102 31.824 171.246 31.68C171.39 31.632 171.486 31.536 171.534 31.392C171.678 31.344 171.822 31.248 171.822 31.056C171.918 30.96 172.062 30.864 172.158 30.768C172.254 30.624 172.35 30.528 172.494 30.432C172.638 30.384 172.734 30.288 172.782 30.144C172.926 30.096 173.07 30 173.07 29.856C173.214 29.712 173.31 29.616 173.406 29.52C173.502 29.424 173.598 29.328 173.694 29.184C173.886 29.136 173.982 29.04 174.03 28.896C174.126 28.8 174.222 28.656 174.366 28.56C175.374 28.272 175.998 27.6 176.526 26.736C176.622 26.64 176.718 26.496 176.814 26.4C176.91 26.304 177.006 26.208 177.15 26.064C177.294 26.064 177.438 25.968 177.438 25.776C177.582 25.776 177.582 25.728 177.534 25.68C177.486 25.728 177.486 25.776 177.486 25.824C177.294 25.824 177.198 25.968 177.15 26.112C177.054 26.208 176.958 26.352 176.862 26.448C176.766 26.544 176.67 26.64 176.526 26.736C175.614 27.072 174.942 27.792 174.366 28.608C174.27 28.704 174.174 28.8 174.03 28.896C173.934 29.04 173.838 29.136 173.742 29.232C173.646 29.328 173.55 29.424 173.406 29.52C173.31 29.664 173.214 29.76 173.118 29.856C173.022 29.952 172.926 30.048 172.782 30.144C172.686 30.24 172.59 30.336 172.494 30.432C172.398 30.576 172.302 30.672 172.158 30.768ZM162.222 34.56L162.27 34.464L162.222 34.512V34.56ZM157.998 43.248C158.286 43.248 158.526 43.104 158.718 42.912C159.39 42.192 160.062 41.376 160.638 40.512C162.462 37.68 163.806 34.608 165.678 31.776C166.158 31.056 166.446 30.192 166.878 29.424C168.462 26.544 169.998 23.616 171.678 20.784C172.638 19.2 173.214 17.472 174.126 15.936C174.366 15.456 174.558 14.976 174.558 14.448C174.558 14.352 174.462 14.208 174.414 14.208C174.318 14.16 174.174 14.16 174.126 14.256C173.982 14.448 173.838 14.64 173.694 14.88C172.782 16.848 171.246 18.48 170.574 20.544C168.702 23.568 167.022 26.736 165.294 29.856C164.958 30.528 164.67 31.296 163.854 31.632C163.758 31.728 163.614 31.872 163.614 32.016C163.662 33.168 162.942 34.08 162.462 34.992C161.406 37.056 160.302 39.12 159.006 41.04C158.622 41.664 158.478 42.432 157.902 42.912C157.854 42.96 157.902 43.104 157.902 43.2L157.998 43.248ZM183.726 27.744C183.726 27.408 183.774 27.12 183.774 26.832C183.822 26.784 183.726 26.736 183.726 26.688C183.678 26.688 183.582 26.688 183.582 26.736C183.438 26.976 183.294 27.264 183.15 27.552C182.43 29.472 181.758 31.44 180.99 33.36C180.318 35.184 179.646 36.96 179.214 38.832C179.022 39.6 178.974 40.368 179.07 41.136C179.07 41.28 179.166 41.424 179.358 41.376C179.454 41.376 179.55 41.28 179.598 41.184C179.694 41.04 179.79 40.848 179.79 40.608C180.366 38.064 181.422 35.712 182.238 33.264C182.814 31.44 183.534 29.664 183.726 27.744ZM175.47 12.096C175.374 12.336 175.278 12.624 175.182 12.912C175.134 12.912 175.23 13.008 175.23 13.008C175.278 13.008 175.374 13.008 175.374 12.96C175.518 12.768 175.614 12.528 175.71 12.288C175.758 12.192 175.662 12.096 175.47 12.096ZM178.59 24.864C178.542 24.864 178.494 24.816 178.494 24.816C178.446 24.816 178.398 24.864 178.398 24.864C178.35 25.008 178.398 25.056 178.494 25.008C178.542 24.96 178.542 24.912 178.59 24.864ZM239.844 0.480001C239.988 0.480001 240.132 0.528001 240.228 0.480001C242.196 1.90735e-06 244.068 0.912002 245.988 1.056C246.852 1.152 247.668 1.68 248.532 2.064C252.084 3.888 253.14 7.008 253.38 10.656C253.38 11.184 253.236 11.52 253.044 11.904C252.852 12.576 252.66 13.152 252.852 13.824C252.996 14.256 252.9 14.592 252.708 15.024C252.084 16.08 251.796 17.232 251.412 18.384C250.692 20.4 249.636 22.08 248.148 23.616C246.756 25.104 245.412 26.64 243.972 27.984C241.86 30.096 239.604 31.872 236.868 32.928C234.948 33.6 233.028 34.128 231.06 34.272C230.34 34.368 229.62 34.272 228.948 34.032C228.132 33.696 227.22 33.6 226.452 33.408C226.068 33.264 225.828 33.504 225.684 33.744C225.156 34.896 224.388 35.952 223.668 36.912C222.468 38.4 221.748 40.128 221.028 41.856C220.74 42.528 220.404 43.056 220.068 43.584C218.724 45.744 217.86 48 216.948 50.352C216.228 51.936 215.796 53.616 215.556 55.296C215.46 56.016 215.22 56.16 214.596 56.112C213.396 56.064 212.436 55.2 212.196 54.048C212.1 53.52 212.052 53.088 212.148 52.608C212.436 50.688 213.06 48.816 213.78 47.088C214.692 44.88 215.94 42.864 216.948 40.704C217.428 39.552 218.244 38.592 218.58 37.344C218.676 37.152 218.772 37.008 218.868 36.864C219.924 35.856 220.308 34.56 221.076 33.456C221.796 32.352 222.564 31.2 223.092 30C223.14 29.856 223.188 29.712 223.284 29.616C224.388 28.464 225.06 27.024 225.876 25.776C227.076 24 228.18 22.176 229.332 20.4C231.348 17.28 233.172 14.208 235.524 11.328C236.292 10.224 237.012 9.072 237.732 7.968C238.452 6.912 239.124 5.952 240.036 5.136C240.228 4.944 240.42 4.704 240.564 4.416C240.612 4.368 240.612 4.224 240.612 4.176C240.564 4.128 240.42 4.08 240.324 4.08C238.788 4.368 237.3 4.752 235.908 5.376C233.748 6.336 231.684 7.536 229.62 8.64C227.124 9.936 225.06 11.664 222.804 13.2C221.076 14.4 219.732 15.984 218.244 17.376C216.756 18.768 215.652 20.4 214.5 22.032C213.828 22.944 213.348 23.952 213.108 25.008C213.06 25.44 212.82 25.872 212.724 26.256C212.58 26.832 212.436 27.312 212.34 27.792C212.292 28.32 212.484 28.512 212.868 28.464C213.588 28.368 214.212 28.224 214.932 27.984C215.748 27.792 216.564 27.6 217.38 27.408C217.476 27.36 217.572 27.408 217.668 27.456C217.812 27.552 217.812 27.696 217.668 27.792C216.756 29.424 215.268 30.144 213.588 30.48C213.396 30.48 213.204 30.48 213.012 30.48C210.804 29.952 209.364 28.512 208.596 26.304C208.404 25.728 208.5 24.96 208.74 24.336C209.892 20.976 211.428 17.808 214.02 15.312C214.644 14.592 215.268 13.968 215.892 13.248C216.18 13.008 216.468 12.72 216.708 12.48C219.156 10.224 221.796 8.16 224.58 6.288C225.348 5.76 226.116 5.424 226.884 5.04C228.996 3.84 231.06 2.64 233.316 1.728C235.428 0.912002 237.588 0.528001 239.844 0.480001ZM214.644 16.944C214.548 17.04 214.452 17.136 214.356 17.184C214.212 17.28 214.164 17.376 214.068 17.472C213.828 17.52 213.684 17.76 213.588 18C213.54 18 213.54 18.096 213.54 18.096C213.588 18.192 213.684 18.192 213.732 18.096C213.924 17.904 214.02 17.712 214.02 17.424C214.116 17.328 214.212 17.28 214.356 17.184C214.452 17.088 214.548 16.992 214.644 16.896C214.74 16.8 214.836 16.704 214.98 16.608C215.076 16.56 215.22 16.464 215.316 16.368L215.268 16.272V16.416C215.22 16.464 215.124 16.608 215.028 16.656C214.788 16.704 214.692 16.8 214.644 16.944ZM224.484 32.592L224.436 32.64L224.484 32.592C224.58 32.544 224.628 32.544 224.532 32.496C224.532 32.544 224.532 32.592 224.484 32.592ZM220.164 10.512C220.068 10.608 219.972 10.704 219.876 10.848C219.78 10.944 219.732 11.04 219.684 11.232H219.588L219.636 11.184C219.732 11.04 219.78 10.896 219.828 10.8C219.924 10.656 220.02 10.56 220.116 10.464C220.212 10.368 220.356 10.272 220.452 10.176C220.932 10.176 221.124 9.888 221.412 9.648C221.652 9.504 221.892 9.264 222.276 9.072C222.372 8.976 222.42 8.832 222.516 8.736L222.564 8.784C222.372 8.832 222.276 8.928 222.324 9.12C221.796 9.024 221.556 9.36 221.412 9.696C221.028 9.6 220.692 9.84 220.452 10.224C220.356 10.32 220.26 10.416 220.164 10.512ZM224.292 7.68H224.196L224.244 7.632C224.34 7.536 224.436 7.44 224.532 7.296C225.156 7.152 225.54 6.72 226.068 6.528C226.548 6.192 227.172 6.144 227.412 5.52C227.652 5.568 227.94 5.568 228.036 5.28C229.188 5.04 230.292 4.416 231.348 3.888C233.028 2.88 234.804 2.208 236.82 1.824C237.396 1.728 237.924 1.584 238.5 1.488C238.644 1.44 238.74 1.344 238.884 1.296C238.74 1.248 238.644 1.152 238.548 1.152C238.116 1.152 237.636 1.104 237.252 1.248C235.572 1.68 233.796 2.016 232.212 2.88C231.108 3.504 230.004 4.032 228.852 4.608C228.516 4.752 228.132 4.8 228.084 5.328C227.748 5.28 227.556 5.28 227.46 5.568C226.788 5.568 226.308 5.904 226.116 6.576C225.348 6.336 224.916 6.768 224.58 7.344C224.388 7.392 224.292 7.488 224.292 7.68ZM220.116 11.664C219.972 11.712 219.924 11.808 219.924 12C219.444 11.808 219.252 12.24 219.012 12.528C218.916 12.624 218.772 12.768 218.676 12.864C218.628 12.96 218.532 13.056 218.436 13.152C218.34 13.248 218.292 13.344 218.148 13.44L218.1 13.392C218.244 13.296 218.34 13.2 218.388 13.104C218.484 13.008 218.58 12.912 218.676 12.864C218.772 12.72 218.868 12.624 218.964 12.48C219.396 12.528 219.732 12.288 219.924 11.952C220.02 11.904 220.116 11.808 220.116 11.664C220.212 11.52 220.308 11.424 220.404 11.28C220.548 11.28 220.692 11.328 220.884 11.28C220.932 11.28 220.98 11.088 220.98 11.04C220.98 10.944 220.884 10.944 220.788 11.04C220.692 11.184 220.5 11.232 220.404 11.328C220.308 11.472 220.212 11.568 220.116 11.664ZM216.708 46.272V46.176V46.224L216.66 46.272H216.708ZM221.268 37.488C221.22 37.68 221.172 37.92 221.124 38.112C220.74 38.256 220.788 38.592 220.884 38.832C220.356 38.832 220.212 39.216 220.02 39.648C219.972 39.696 220.068 39.792 220.068 39.888C220.164 39.792 220.26 39.792 220.26 39.744C220.452 39.36 220.596 39.072 220.884 38.784C220.932 38.592 221.028 38.352 221.076 38.064C221.22 37.92 221.268 37.728 221.268 37.488H221.364H221.268ZM220.692 35.472C220.596 35.52 220.548 35.568 220.5 35.664C220.5 35.76 220.596 35.76 220.692 35.664C220.74 35.616 220.692 35.52 220.596 35.424L220.74 35.472H220.692ZM217.332 14.4C217.236 14.4 217.188 14.4 217.092 14.4C217.044 14.4 216.996 14.4 216.996 14.448C217.044 14.448 217.092 14.448 217.14 14.448C217.188 14.4 217.284 14.352 217.332 14.352C217.332 14.352 217.332 14.352 217.332 14.4ZM217.524 44.4C218.004 44.208 218.052 43.776 218.148 43.296C218.1 43.248 218.1 43.2 218.244 43.296C218.148 43.296 218.148 43.344 218.1 43.344C217.908 43.68 217.716 44.112 217.524 44.4V44.496V44.4ZM215.556 48.864C214.98 49.44 214.596 50.064 214.692 50.88C213.876 51.408 214.02 52.128 214.068 52.944L214.02 52.992L214.068 52.848C214.548 52.272 214.692 51.648 214.644 50.832C215.172 50.256 215.412 49.584 215.508 48.864H215.556ZM251.22 7.392C251.268 7.056 251.316 6.72 251.172 6.384C251.124 6.288 250.98 6.096 250.788 6.144C250.644 6.144 250.644 6.336 250.692 6.48C250.884 6.768 251.076 7.056 251.22 7.344C251.22 8.016 251.22 8.64 251.22 9.264C251.22 9.696 251.172 10.128 250.98 10.512C250.596 10.992 250.26 11.424 250.212 11.952C250.212 12.096 250.26 12.288 250.404 12.288C250.5 12.288 250.596 12.24 250.644 12.144C250.98 11.76 251.172 11.328 251.268 10.8C251.7 9.888 251.604 8.832 251.508 7.824C251.46 7.632 251.364 7.488 251.22 7.392ZM219.876 14.016C219.492 14.064 219.252 14.256 218.964 14.448C217.428 15.792 216.084 17.28 214.74 18.768C213.3 20.544 212.196 22.512 211.092 24.432C211.044 24.48 211.044 24.528 211.044 24.576C211.092 24.72 211.14 24.96 211.284 25.008C211.476 25.2 211.572 24.96 211.62 24.768C212.388 22.752 213.684 21.072 215.028 19.488C216.372 17.856 217.812 16.416 219.156 14.832C219.444 14.592 219.828 14.4 219.828 13.968C220.884 13.776 221.364 12.864 222.18 12.288C222.228 12.24 222.228 12.096 222.276 12.048C222.228 12.048 222.036 12.048 221.94 12.048C221.076 12.48 220.404 13.2 219.876 14.016ZM234.132 29.664C234.42 29.712 234.804 29.616 234.804 29.328C234.9 28.656 235.524 28.512 235.908 28.224C238.116 26.64 240.132 25.008 242.004 23.088C243.444 21.6 244.836 20.016 245.988 18.336C246.9 16.992 247.476 15.504 248.484 14.256C248.628 14.112 248.676 13.872 248.772 13.536C249.012 12.864 249.252 12.096 249.636 11.424C250.116 10.128 250.26 8.736 250.164 7.296C250.02 5.76 249.348 4.512 248.196 3.6C247.62 3.072 247.092 2.832 246.324 2.88C245.316 2.976 244.356 3.072 243.3 3.168C243.204 3.168 242.964 3.216 242.964 3.408C242.964 3.504 243.108 3.648 243.204 3.744C244.116 4.704 244.164 5.136 243.636 6.144C243.396 6.624 243.108 7.056 242.772 7.488C241.284 9.504 240.228 11.808 238.452 13.584C238.26 13.872 238.212 14.112 238.02 14.352C236.724 16.176 235.956 18.384 234.42 20.064C234.18 20.352 234.036 20.736 233.796 21.072C233.412 21.648 233.172 22.224 232.74 22.752C232.02 23.52 231.588 24.432 231.012 25.248C230.58 25.968 230.34 26.832 229.764 27.36C228.852 28.368 228.468 29.616 227.7 30.624C227.556 30.864 227.748 31.152 228.036 31.152C228.996 31.152 229.908 31.008 230.868 30.576C231.204 30.48 231.684 30.192 232.068 30.384C232.836 30.72 233.268 30.288 233.796 29.952C233.94 29.856 234.036 29.76 234.132 29.664ZM248.532 17.088C248.532 17.04 248.484 16.992 248.484 16.944C248.388 16.944 248.292 16.944 248.196 16.944C247.86 17.136 247.62 17.376 247.572 17.712C247.332 18.96 246.42 19.728 245.796 20.64C245.46 21.12 244.884 21.408 245.076 22.08C245.7 21.936 245.988 21.456 246.276 21.072C246.564 20.64 246.9 20.16 247.14 19.728C247.428 19.056 247.668 18.384 248.292 17.856C248.484 17.664 248.58 17.376 248.532 17.088ZM249.156 14.592C249.252 14.688 249.3 14.688 249.3 14.544C249.3 14.544 249.252 14.496 249.204 14.496C249.204 14.544 249.156 14.592 249.156 14.592ZM234.132 29.712C234.18 29.568 234.228 29.328 234.276 29.232C234.18 29.232 234.084 29.184 234.036 29.184C233.844 29.28 233.652 29.424 233.46 29.568C233.412 29.664 233.316 29.76 233.268 29.856C233.412 29.904 233.652 29.952 233.844 30C233.94 29.904 234.036 29.808 234.132 29.712ZM250.98 10.464C251.076 10.56 251.172 10.656 251.268 10.8C251.172 10.656 251.076 10.56 250.98 10.464ZM269.589 36.768L269.541 36.72C269.589 37.104 269.253 37.344 269.061 37.632C268.821 37.968 268.437 38.208 268.341 38.64C268.149 38.688 268.053 38.784 268.005 38.976C267.765 38.976 267.525 39.024 267.333 39.216V39.264V39.168C267.573 39.216 267.813 39.168 267.957 38.928C268.101 38.832 268.197 38.688 268.293 38.592C269.109 38.352 268.341 38.688 268.965 38.112C270.789 36.384 271.701 35.52 273.669 33.888C273.957 33.648 274.341 33.408 274.341 32.928C274.437 32.88 274.629 33.072 274.629 32.784C274.533 32.832 274.485 32.88 274.389 32.928C273.813 33.216 273.285 33.552 272.853 34.032C272.565 34.32 272.229 34.56 271.797 34.656C271.749 34.704 271.653 34.704 271.653 34.656C271.605 34.56 271.557 34.464 271.557 34.368C271.701 34.176 271.797 33.888 271.989 33.744C272.805 32.976 273.669 32.208 274.533 31.44C275.157 30.912 275.829 31.104 276.501 31.296C276.597 31.296 276.693 31.392 276.741 31.44C277.077 31.968 276.981 32.592 277.077 33.12C277.125 33.504 276.885 33.84 276.549 34.032C275.493 34.8 274.629 35.808 273.477 36.432C273.333 36.528 273.189 36.624 273.141 36.768C271.605 38.736 271.845 38.4 270.069 40.08C267.957 42 265.653 43.632 263.301 45.168C262.053 45.984 260.661 45.936 259.557 45.024C258.837 44.4 258.261 43.632 257.877 42.768C257.493 41.952 257.445 41.04 257.637 40.128C257.973 38.88 258.405 37.632 258.933 36.432C258.981 36.288 259.029 36.096 258.933 36C258.789 35.76 258.597 35.904 258.405 36C257.925 36.336 257.445 36.672 257.013 37.008C256.773 37.152 256.629 37.392 256.437 37.584C255.861 38.112 255.141 38.4 254.421 38.64C254.373 39.408 253.845 39.936 253.317 40.464C252.885 40.896 252.501 41.376 251.877 41.664C251.589 41.808 251.349 42.096 251.061 42.384C250.389 43.152 249.573 43.824 248.661 44.352C248.421 44.496 248.229 44.64 247.989 44.784C246.069 45.744 244.821 45.168 243.957 43.392C242.949 41.424 242.757 39.36 244.005 37.248C245.541 34.752 247.077 32.256 248.997 30.048C250.821 27.984 252.741 26.064 254.853 24.336C256.773 22.8 258.837 21.504 261.381 21.072C262.581 20.88 263.685 20.976 264.789 21.312C266.853 21.984 268.773 22.896 269.973 24.912C270.117 25.2 270.405 25.488 270.165 25.92C270.021 26.16 269.493 26.16 269.061 25.824C268.725 25.584 268.437 25.344 268.245 25.056C267.621 24.048 266.613 23.952 265.605 24.144C264.501 24.384 263.397 24.72 262.293 25.056C261.765 25.248 261.189 25.536 260.757 25.872C259.701 26.784 258.549 27.6 257.445 28.512C254.997 30.576 252.837 32.928 250.773 35.376C249.333 37.104 248.133 39.024 247.077 40.992C247.029 41.136 247.029 41.328 247.077 41.424C247.125 41.616 247.317 41.568 247.461 41.52C247.989 41.472 248.325 41.136 248.661 40.8C249.861 39.696 251.109 38.688 252.261 37.536C253.941 36 255.909 34.896 257.733 33.552C258.309 33.12 258.693 32.448 259.509 32.352L259.461 32.304C258.933 33.024 258.309 33.6 257.637 34.176C256.677 34.848 255.765 35.664 254.853 36.384C253.461 37.44 252.261 38.784 250.821 39.792C250.149 40.272 249.477 40.848 249.429 41.76C249.285 41.856 249.333 42 249.381 42.144C249.477 42.192 249.525 42.24 249.621 42.24C249.717 42.288 249.813 42.24 249.861 42.24C249.813 42.192 249.717 42.144 249.669 42.144C249.573 42.144 249.429 42.144 249.333 42.144C249.381 42 249.381 41.856 249.381 41.712C250.053 41.712 250.533 41.28 251.013 40.848C252.021 39.984 253.029 39.072 254.085 38.208C255.429 37.104 256.725 35.904 258.165 34.896C259.413 33.984 260.565 32.88 261.717 31.824C262.293 31.344 262.485 30.72 262.245 30.672C261.861 30.624 261.621 31.008 261.333 31.152C261.141 31.248 260.949 31.296 260.757 31.344L260.805 31.392C261.285 30.672 261.813 29.952 262.341 29.28C262.485 29.088 262.629 28.992 262.869 28.992C263.157 28.992 263.445 28.992 263.637 28.848C264.453 28.32 265.077 28.656 265.653 29.28C265.845 29.472 266.085 29.568 266.277 29.712C266.805 30.096 266.901 30.624 266.757 31.248C266.325 33.216 265.509 34.992 264.213 36.528C263.109 37.92 262.293 39.504 261.573 41.136C261.525 41.28 261.525 41.472 261.573 41.568C261.717 41.808 261.957 41.712 262.149 41.616C263.733 40.752 265.125 39.696 266.517 38.544C267.141 38.016 267.765 37.44 268.437 36.912C268.773 36.672 269.157 36.48 269.589 36.768ZM252.261 28.512C252.357 28.416 252.453 28.32 252.549 28.224C252.645 28.08 252.789 27.984 252.885 27.888C253.029 27.84 253.125 27.744 253.173 27.6C253.365 27.552 253.461 27.408 253.509 27.264C254.133 27.216 254.421 26.784 254.757 26.352C254.853 26.256 254.997 26.112 255.093 26.016C255.189 25.872 255.285 25.776 255.381 25.68L255.477 25.632L255.429 25.68C255.333 25.824 255.237 25.92 255.093 26.016C254.997 26.16 254.901 26.256 254.805 26.4C254.133 26.352 253.701 26.688 253.509 27.312C253.365 27.312 253.269 27.456 253.221 27.6C253.077 27.648 252.933 27.744 252.885 27.936C252.789 28.032 252.693 28.128 252.597 28.224C252.501 28.368 252.405 28.464 252.309 28.56C252.165 28.656 252.069 28.8 251.925 28.896C251.829 28.992 251.733 29.088 251.637 29.184C251.541 29.28 251.445 29.376 251.349 29.472C251.205 29.616 251.109 29.712 250.965 29.808C250.869 29.904 250.773 30 250.677 30.096C250.581 30.192 250.485 30.288 250.389 30.432C250.245 30.528 250.149 30.624 250.005 30.768C249.909 30.816 249.813 30.912 249.669 31.008L249.717 31.056L249.669 30.96C249.765 30.912 249.861 30.816 250.005 30.72C250.101 30.624 250.197 30.48 250.341 30.384C250.437 30.288 250.533 30.192 250.677 30.096C250.773 30 250.869 29.904 250.965 29.808C251.061 29.664 251.205 29.568 251.301 29.472C251.397 29.376 251.541 29.28 251.637 29.136C251.733 29.04 251.829 28.944 251.925 28.896C252.021 28.752 252.165 28.656 252.261 28.512ZM256.677 24.768L256.581 24.816L256.629 24.768C256.725 24.624 256.869 24.528 256.965 24.432C257.205 24.384 257.445 24.384 257.589 24.144C257.733 24.048 257.877 23.952 257.877 23.76C258.165 23.808 258.405 23.712 258.549 23.52C258.693 23.472 258.837 23.52 258.837 23.376C258.837 23.328 258.741 23.328 258.741 23.328C258.693 23.376 258.645 23.472 258.597 23.568C258.357 23.568 258.117 23.616 257.925 23.808C257.829 23.952 257.733 24.048 257.589 24.192C257.349 24.144 257.157 24.24 257.013 24.432C256.869 24.576 256.773 24.672 256.677 24.768ZM248.805 32.304L248.853 32.352C248.949 32.208 249.045 32.112 249.141 32.016L249.093 31.968C248.997 32.112 248.901 32.208 248.805 32.304ZM270.981 35.04L270.933 34.992C270.309 36.192 270.885 36.336 269.541 36.72L269.589 36.768C269.829 35.376 269.493 35.616 270.501 34.944C270.597 34.896 270.789 34.992 270.981 35.04ZM259.461 32.304L259.509 32.352C259.749 31.776 260.229 31.536 260.805 31.392L260.757 31.344C260.373 31.728 260.133 32.256 259.461 32.304ZM270.981 35.04L270.933 34.992C271.317 34.944 270.645 35.616 270.693 35.184C270.693 35.136 270.597 35.04 270.597 35.04C270.165 35.136 271.077 34.704 270.981 35.04ZM288.092 22.56C288.188 24.48 287.228 26.016 286.268 27.456C285.26 29.04 283.82 30.24 282.38 31.44C282.188 31.632 281.996 31.728 281.852 31.872C281.468 32.256 281.516 32.496 281.9 32.688C282.908 33.216 283.868 33.792 284.876 34.272C285.548 34.56 285.932 35.136 286.172 35.76C286.508 36.72 286.556 37.584 285.932 38.4C284.876 39.696 284.348 41.232 283.628 42.672C283.58 42.768 283.58 43.008 283.628 43.104C283.724 43.2 283.868 43.104 284.06 43.056C285.596 42.192 286.844 40.896 288.092 39.648C289.484 38.256 290.732 36.816 292.172 35.424C292.844 34.704 293.468 33.984 294.092 33.216C294.572 32.64 295.148 32.064 295.628 31.488C295.916 31.2 296.252 30.96 296.636 30.816C297.116 30.72 297.548 30.864 297.932 31.248C298.22 31.632 298.268 32.112 297.98 32.496C297.356 33.408 296.78 34.224 296.108 35.136C295.052 36.576 293.9 37.968 292.604 39.264C292.316 39.552 291.932 39.84 291.74 40.272C290.588 42.336 288.956 44.016 287.18 45.552C285.836 46.752 284.444 46.848 282.86 46.176C281.468 45.6 280.652 44.448 279.932 43.248C279.5 42.624 279.452 41.904 279.644 41.088C280.028 39.888 280.316 38.64 280.844 37.536C281.132 36.912 281.372 36.24 281.564 35.568C281.708 35.232 281.612 34.896 281.276 34.656C280.364 34.224 279.5 33.84 278.636 33.408C277.868 33.648 277.388 33.024 276.668 32.88C276.14 32.832 275.852 32.592 275.612 32.064C275.468 31.632 275.132 31.344 275.516 30.864C275.708 30.576 275.564 30.288 275.372 30.048C273.74 27.792 273.932 25.488 274.988 23.136C275.66 21.456 276.764 20.112 278.3 19.104C279.548 18.24 280.844 17.712 282.428 18C284.348 18.288 286.076 18.768 287.276 20.448C288.188 20.928 288.188 21.744 288.092 22.56ZM278.252 22.32C277.82 22.608 277.532 22.992 277.436 23.472C277.916 23.232 278.252 22.896 278.252 22.272C278.3 22.272 278.348 22.272 278.396 22.224H278.348C278.3 22.272 278.3 22.32 278.252 22.32ZM277.34 27.024C277.388 27.504 277.436 28.032 277.532 28.512C277.724 29.328 278.012 29.424 278.636 28.896C280.076 27.744 281.372 26.4 282.284 24.768C282.908 23.808 283.388 22.848 283.532 21.696C283.58 21.36 283.628 20.976 283.58 20.64C283.532 20.112 283.004 19.92 282.668 20.304C282.284 20.736 281.852 20.976 281.42 21.264C280.124 21.888 279.212 22.848 278.588 24.144C278.444 24.288 278.3 24.432 278.204 24.576C277.772 25.392 277.532 26.16 277.34 27.024ZM283.484 26.736C283.58 26.736 283.724 26.688 283.82 26.64C284.204 26.16 284.588 25.728 284.924 25.296C284.972 25.152 285.02 24.96 285.02 24.816C284.972 24.72 284.876 24.576 284.78 24.528C284.732 24.48 284.588 24.48 284.54 24.48C283.82 24.864 283.436 25.584 283.148 26.256C283.1 26.4 283.196 26.688 283.484 26.736ZM284.396 23.616C284.732 23.664 284.924 23.424 285.02 23.184C285.212 22.896 285.356 22.56 285.068 22.224C284.876 22.032 284.54 22.272 284.348 22.752C284.252 22.944 284.204 23.088 284.156 23.28C284.156 23.424 284.252 23.52 284.396 23.616ZM275.756 27.696C275.852 27.456 275.948 27.312 275.948 27.216C275.948 27.072 275.852 26.976 275.756 26.832C275.708 26.976 275.66 27.072 275.66 27.216C275.612 27.312 275.708 27.456 275.756 27.696ZM301.317 41.136C300.693 40.032 300.693 38.784 300.501 37.536C300.453 37.152 300.645 36.576 300.117 36.432C299.733 36.384 299.637 36.96 299.397 37.248C298.821 37.872 298.197 38.496 297.669 39.168C296.709 40.416 295.749 41.664 295.269 43.2C295.125 43.584 294.885 43.968 294.693 44.352C294.117 45.408 294.021 45.36 292.965 44.736C292.437 44.448 292.005 44.016 291.525 43.632C291.093 43.344 291.045 42.912 291.237 42.48C291.573 41.808 291.813 41.184 292.149 40.512C293.733 37.392 295.413 34.32 296.949 31.2C298.293 28.512 299.781 25.968 301.269 23.376C302.997 20.352 304.869 17.424 306.693 14.448C307.989 12.384 311.589 6.816 312.741 4.656C313.125 3.888 313.749 3.312 314.421 2.736C314.709 2.496 314.853 2.592 315.141 2.736C315.909 3.12 316.245 3.936 316.821 4.464C317.109 4.704 317.013 5.088 316.869 5.424C316.101 7.488 313.173 13.152 311.877 14.976C311.157 15.984 310.533 17.04 310.005 18.192C309.813 18.72 309.429 19.2 309.093 19.632C308.373 20.64 307.797 21.648 307.221 22.704C307.173 22.896 307.029 23.088 307.269 23.232C307.413 23.328 307.605 23.184 307.749 23.088C308.277 22.656 308.805 22.224 309.333 21.792C310.053 21.216 310.821 20.928 311.685 21.552C311.829 21.696 312.117 21.696 312.357 21.744C314.565 22.176 315.765 24.192 314.901 26.256C314.133 28.224 313.365 30.192 312.069 31.872C311.205 32.976 310.101 33.84 309.093 34.8C308.373 35.472 307.413 35.712 306.453 35.808C305.925 35.856 305.397 35.904 304.869 35.904C304.581 35.952 304.485 36.144 304.485 36.384C304.533 36.576 304.629 36.768 304.677 36.96C304.965 37.872 305.157 38.784 305.205 39.744C305.301 40.704 305.541 41.616 306.069 42.48C306.261 42.768 306.453 42.864 306.789 42.72C307.269 42.432 307.797 42.144 308.277 41.856C308.469 41.712 308.661 41.52 308.853 41.424C310.533 40.56 311.781 39.072 313.413 38.016C314.325 37.44 314.997 36.528 315.957 35.904H315.909C316.005 36.144 316.149 36.336 316.437 36.192C316.533 36.144 316.677 36.048 316.773 35.952C317.925 34.992 319.077 33.984 320.229 33.024H320.181C320.325 33.216 320.421 33.408 320.565 33.648L320.517 33.6C319.509 36.24 317.685 38.352 315.861 40.464C314.517 42 312.933 43.296 311.157 44.448C309.093 45.792 306.981 45.744 304.821 44.544C303.525 43.872 302.517 42.864 301.605 41.76C301.461 41.568 301.365 41.328 301.269 41.136L301.317 41.088V41.136ZM303.813 33.072C303.957 33.024 304.149 33.024 304.293 32.928C304.869 32.64 305.349 32.208 305.973 32.112C306.117 32.112 306.261 31.92 306.405 31.776C307.653 30.288 308.805 28.8 309.765 27.12C310.053 26.592 310.245 26.064 310.389 25.536C310.437 25.392 310.341 25.2 310.293 25.152C310.197 25.104 310.005 25.2 309.909 25.248C309.717 25.344 309.621 25.488 309.477 25.632C308.229 26.976 307.029 28.32 305.829 29.712C305.013 30.624 304.341 31.728 303.477 32.592C303.381 32.688 303.381 32.88 303.477 32.976C303.573 33.024 303.669 33.024 303.813 33.072ZM315.957 35.904H315.909H315.957ZM320.565 32.688L320.613 32.64L320.565 32.688ZM320.229 33.024H320.181C320.325 32.88 320.421 32.784 320.565 32.688C320.469 32.832 320.325 32.928 320.229 33.024ZM320.565 33.648L320.517 33.6L320.565 33.648ZM336.185 35.28C336.089 35.808 335.609 36.192 335.657 36.768C335.657 37.152 335.321 37.44 335.033 37.68C334.505 38.112 334.025 38.592 333.545 39.024C333.401 39.168 333.209 39.36 333.401 39.504C333.545 39.696 333.737 39.552 333.929 39.456C335.801 38.304 337.481 36.864 338.777 34.992C338.921 34.704 339.065 34.416 339.353 34.176C339.449 34.128 339.545 34.128 339.593 34.08C339.593 34.176 339.641 34.32 339.593 34.368C339.065 34.992 338.969 35.76 338.537 36.432C337.385 38.256 336.089 40.08 334.409 41.376C332.297 43.008 330.041 44.592 327.209 44.88C326.969 44.88 326.729 44.928 326.489 45.024C323.368 45.984 319.097 44.064 317.369 41.712C316.072 39.888 316.216 37.92 316.505 35.904C316.793 34.08 317.513 32.4 318.473 30.816C319.721 28.704 321.257 26.88 323.033 25.2C323.273 24.96 323.609 24.72 323.897 24.48C324.233 24.24 324.665 24 324.761 23.568C324.905 23.088 325.241 22.944 325.625 22.8C326.249 22.608 326.825 22.224 327.401 21.888C328.457 21.312 329.609 21.168 330.761 21.216C331.001 21.264 331.241 21.312 331.481 21.408C332.585 22.032 333.737 22.656 334.649 23.616C334.985 23.904 335.225 24.288 334.937 24.768C334.937 24.864 334.841 24.96 334.889 25.008C335.177 27.312 334.265 29.136 332.873 30.816C331.337 32.64 329.417 34.032 327.209 34.944C326.393 35.28 325.577 35.568 324.761 35.808C323.897 36 323.033 35.904 322.217 35.568C321.353 35.184 321.353 35.232 320.921 36.048C320.105 37.488 319.913 39.072 319.913 40.656C319.913 40.896 319.961 41.136 320.009 41.376C320.201 42.192 320.441 42.336 321.353 42.24C323.368 42.096 326.297 41.328 327.929 40.176C328.745 39.648 329.513 39.12 330.281 38.496C330.905 37.968 331.673 37.632 332.441 37.344C333.257 37.008 333.977 36.528 334.697 36.048C335.129 35.712 335.657 35.376 336.233 35.328L336.185 35.28ZM325.241 31.536C324.905 31.584 324.569 31.584 324.233 31.632C323.465 31.776 322.937 32.16 323.129 32.304C323.561 32.592 323.945 32.352 324.377 32.208C324.713 32.112 325.097 31.968 325.193 31.536H325.289H325.241ZM324.089 31.152C324.233 31.104 324.377 31.104 324.521 31.056C325.001 30.816 325.529 30.528 326.057 30.288C327.833 29.568 329.033 28.224 330.233 26.832C330.569 26.4 330.761 25.92 330.905 25.392C330.233 25.2 329.705 25.536 329.225 25.872C327.929 26.784 326.633 27.696 325.577 28.896C325.001 29.472 324.473 30.144 323.993 30.768C323.897 30.864 323.945 31.056 324.089 31.152ZM336.233 35.328C336.665 34.704 337.193 34.176 337.961 33.888H337.913C337.529 34.56 337.001 35.136 336.185 35.28L336.233 35.328ZM339.689 32.448C339.449 32.736 339.257 33.024 338.825 32.928V32.976C339.065 32.64 339.305 32.448 339.737 32.496L339.689 32.448ZM338.825 32.928C338.777 33.12 338.681 33.216 338.537 33.216V33.264C338.633 33.168 338.729 33.072 338.825 32.976V32.928ZM338.537 33.216C338.489 33.408 338.441 33.504 338.249 33.504V33.552C338.345 33.456 338.441 33.36 338.537 33.264V33.216ZM337.961 33.888H337.913C338.009 33.744 338.153 33.648 338.249 33.504V33.552C338.153 33.696 338.057 33.792 337.961 33.888ZM341.177 31.008V30.96C341.177 30.912 341.225 30.912 341.225 30.912C341.225 30.912 341.225 30.96 341.177 31.008ZM340.841 31.2C340.937 31.104 341.081 31.008 341.177 30.96V31.008C341.081 31.056 340.984 31.152 340.841 31.2ZM340.841 31.2C340.793 31.344 340.697 31.44 340.601 31.536L340.552 31.488C340.649 31.392 340.745 31.296 340.841 31.2ZM340.312 31.824H340.265C340.361 31.68 340.457 31.584 340.552 31.488L340.601 31.536C340.505 31.632 340.409 31.728 340.312 31.824ZM340.265 31.824C340.217 31.92 340.121 32.016 340.025 32.16H340.073C340.073 32.016 340.169 31.92 340.312 31.824H340.265ZM340.025 32.16H340.073C339.881 32.208 339.785 32.304 339.737 32.496L339.689 32.448C339.833 32.352 339.929 32.256 340.025 32.16ZM351.186 22.56C351.282 24.48 350.322 26.016 349.362 27.456C348.354 29.04 346.914 30.24 345.474 31.44C345.282 31.632 345.09 31.728 344.946 31.872C344.562 32.256 344.61 32.496 344.994 32.688C346.002 33.216 346.962 33.792 347.97 34.272C348.642 34.56 349.026 35.136 349.266 35.76C349.602 36.72 349.65 37.584 349.026 38.4C347.97 39.696 347.442 41.232 346.722 42.672C346.674 42.768 346.674 43.008 346.722 43.104C346.818 43.2 346.962 43.104 347.154 43.056C348.69 42.192 349.938 40.896 351.186 39.648C352.578 38.256 353.826 36.816 355.266 35.424C355.938 34.704 356.562 33.984 357.186 33.216C357.666 32.64 358.242 32.064 358.722 31.488C359.01 31.2 359.346 30.96 359.73 30.816C360.21 30.72 360.642 30.864 361.026 31.248C361.314 31.632 361.362 32.112 361.074 32.496C360.45 33.408 359.874 34.224 359.202 35.136C358.146 36.576 356.994 37.968 355.698 39.264C355.41 39.552 355.026 39.84 354.834 40.272C353.682 42.336 352.05 44.016 350.274 45.552C348.93 46.752 347.538 46.848 345.954 46.176C344.562 45.6 343.746 44.448 343.026 43.248C342.594 42.624 342.546 41.904 342.738 41.088C343.122 39.888 343.41 38.64 343.938 37.536C344.226 36.912 344.466 36.24 344.658 35.568C344.802 35.232 344.706 34.896 344.37 34.656C343.458 34.224 342.594 33.84 341.73 33.408C340.962 33.648 340.482 33.024 339.762 32.88C339.234 32.832 338.946 32.592 338.706 32.064C338.562 31.632 338.226 31.344 338.61 30.864C338.802 30.576 338.658 30.288 338.466 30.048C336.834 27.792 337.026 25.488 338.082 23.136C338.754 21.456 339.858 20.112 341.394 19.104C342.642 18.24 343.938 17.712 345.522 18C347.442 18.288 349.17 18.768 350.37 20.448C351.282 20.928 351.282 21.744 351.186 22.56ZM341.346 22.32C340.914 22.608 340.626 22.992 340.53 23.472C341.01 23.232 341.346 22.896 341.346 22.272C341.394 22.272 341.442 22.272 341.49 22.224H341.442C341.394 22.272 341.394 22.32 341.346 22.32ZM340.434 27.024C340.482 27.504 340.53 28.032 340.626 28.512C340.818 29.328 341.106 29.424 341.73 28.896C343.17 27.744 344.466 26.4 345.378 24.768C346.002 23.808 346.482 22.848 346.626 21.696C346.674 21.36 346.722 20.976 346.674 20.64C346.626 20.112 346.098 19.92 345.762 20.304C345.378 20.736 344.946 20.976 344.514 21.264C343.218 21.888 342.306 22.848 341.682 24.144C341.538 24.288 341.394 24.432 341.298 24.576C340.866 25.392 340.626 26.16 340.434 27.024ZM346.578 26.736C346.674 26.736 346.818 26.688 346.914 26.64C347.298 26.16 347.682 25.728 348.018 25.296C348.066 25.152 348.114 24.96 348.114 24.816C348.066 24.72 347.97 24.576 347.874 24.528C347.826 24.48 347.682 24.48 347.634 24.48C346.914 24.864 346.53 25.584 346.242 26.256C346.194 26.4 346.29 26.688 346.578 26.736ZM347.49 23.616C347.826 23.664 348.018 23.424 348.114 23.184C348.306 22.896 348.45 22.56 348.162 22.224C347.97 22.032 347.634 22.272 347.442 22.752C347.346 22.944 347.298 23.088 347.25 23.28C347.25 23.424 347.346 23.52 347.49 23.616ZM338.85 27.696C338.946 27.456 339.042 27.312 339.042 27.216C339.042 27.072 338.946 26.976 338.85 26.832C338.802 26.976 338.754 27.072 338.754 27.216C338.706 27.312 338.802 27.456 338.85 27.696Z" fill="white"/>
</svg>
