<svg width="60" height="60" viewBox="0 0 60 60" fill="none" xmlns="http://www.w3.org/2000/svg">
<path d="M40 35H20C19.337 35 18.7011 35.2634 18.2322 35.7322C17.7634 36.2011 17.5 36.837 17.5 37.5C17.5 38.163 17.7634 38.7989 18.2322 39.2678C18.7011 39.7366 19.337 40 20 40H40C40.663 40 41.2989 39.7366 41.7678 39.2678C42.2366 38.7989 42.5 38.163 42.5 37.5C42.5 36.837 42.2366 36.2011 41.7678 35.7322C41.2989 35.2634 40.663 35 40 35ZM40 25H25C24.337 25 23.7011 25.2634 23.2322 25.7322C22.7634 26.2011 22.5 26.837 22.5 27.5C22.5 28.163 22.7634 28.7989 23.2322 29.2678C23.7011 29.7366 24.337 30 25 30H40C40.663 30 41.2989 29.7366 41.7678 29.2678C42.2366 28.7989 42.5 28.163 42.5 27.5C42.5 26.837 42.2366 26.2011 41.7678 25.7322C41.2989 25.2634 40.663 25 40 25ZM50 10H42.5V7.5C42.5 6.83696 42.2366 6.20107 41.7678 5.73223C41.2989 5.26339 40.663 5 40 5C39.337 5 38.7011 5.26339 38.2322 5.73223C37.7634 6.20107 37.5 6.83696 37.5 7.5V10H32.5V7.5C32.5 6.83696 32.2366 6.20107 31.7678 5.73223C31.2989 5.26339 30.663 5 30 5C29.337 5 28.7011 5.26339 28.2322 5.73223C27.7634 6.20107 27.5 6.83696 27.5 7.5V10H22.5V7.5C22.5 6.83696 22.2366 6.20107 21.7678 5.73223C21.2989 5.26339 20.663 5 20 5C19.337 5 18.7011 5.26339 18.2322 5.73223C17.7634 6.20107 17.5 6.83696 17.5 7.5V10H10C9.33696 10 8.70107 10.2634 8.23223 10.7322C7.76339 11.2011 7.5 11.837 7.5 12.5V47.5C7.5 49.4891 8.29018 51.3968 9.6967 52.8033C11.1032 54.2098 13.0109 55 15 55H45C46.9891 55 48.8968 54.2098 50.3033 52.8033C51.7098 51.3968 52.5 49.4891 52.5 47.5V12.5C52.5 11.837 52.2366 11.2011 51.7678 10.7322C51.2989 10.2634 50.663 10 50 10ZM47.5 47.5C47.5 48.163 47.2366 48.7989 46.7678 49.2678C46.2989 49.7366 45.663 50 45 50H15C14.337 50 13.7011 49.7366 13.2322 49.2678C12.7634 48.7989 12.5 48.163 12.5 47.5V15H17.5V17.5C17.5 18.163 17.7634 18.7989 18.2322 19.2678C18.7011 19.7366 19.337 20 20 20C20.663 20 21.2989 19.7366 21.7678 19.2678C22.2366 18.7989 22.5 18.163 22.5 17.5V15H27.5V17.5C27.5 18.163 27.7634 18.7989 28.2322 19.2678C28.7011 19.7366 29.337 20 30 20C30.663 20 31.2989 19.7366 31.7678 19.2678C32.2366 18.7989 32.5 18.163 32.5 17.5V15H37.5V17.5C37.5 18.163 37.7634 18.7989 38.2322 19.2678C38.7011 19.7366 39.337 20 40 20C40.663 20 41.2989 19.7366 41.7678 19.2678C42.2366 18.7989 42.5 18.163 42.5 17.5V15H47.5V47.5Z" fill="#759589"/>
</svg>
