<svg width="60" height="60" viewBox="0 0 60 60" fill="none" xmlns="http://www.w3.org/2000/svg">
<path d="M51.25 32.5C50.587 32.5 49.9511 32.7634 49.4822 33.2322C49.0134 33.7011 48.75 34.3369 48.75 35V45C48.75 45.663 48.4866 46.2989 48.0178 46.7677C47.5489 47.2366 46.913 47.5 46.25 47.5H11.25C10.587 47.5 9.95107 47.2366 9.48223 46.7677C9.01339 46.2989 8.75 45.663 8.75 45V21.025L23.45 35.75C24.8531 37.1416 26.7488 37.9233 28.725 37.925C29.7257 37.9275 30.7168 37.7297 31.6399 37.3433C32.5631 36.9569 33.3995 36.3896 34.1 35.675L36.325 33.475C36.6674 32.9922 36.8273 32.4036 36.7764 31.8139C36.7256 31.2243 36.4671 30.6718 36.0471 30.2548C35.6271 29.8378 35.0728 29.5833 34.4828 29.5366C33.8928 29.49 33.3053 29.6542 32.825 30L30.5 32.275C30.0327 32.733 29.4044 32.9896 28.75 32.9896C28.0956 32.9896 27.4673 32.733 27 32.275L12.275 17.5H23.75C24.413 17.5 25.0489 17.2366 25.5178 16.7677C25.9866 16.2989 26.25 15.663 26.25 15C26.25 14.3369 25.9866 13.7011 25.5178 13.2322C25.0489 12.7634 24.413 12.5 23.75 12.5H11.25C9.26088 12.5 7.35322 13.2902 5.9467 14.6967C4.54018 16.1032 3.75 18.0109 3.75 20V45C3.75 46.9891 4.54018 48.8968 5.9467 50.3033C7.35322 51.7098 9.26088 52.5 11.25 52.5H46.25C48.2391 52.5 50.1468 51.7098 51.5533 50.3033C52.9598 48.8968 53.75 46.9891 53.75 45V35C53.75 34.3369 53.4866 33.7011 53.0178 33.2322C52.5489 32.7634 51.913 32.5 51.25 32.5ZM53.875 9.99998C52.6083 8.77876 50.9872 7.99029 49.2445 7.74775C47.5018 7.5052 45.727 7.82106 44.175 8.64998C42.4647 7.70937 40.473 7.41587 38.5641 7.82316C36.6552 8.23046 34.9567 9.31132 33.7793 10.8681C32.6019 12.4248 32.0242 14.3534 32.152 16.3011C32.2797 18.2488 33.1043 20.0854 34.475 21.475L42.5 29.275C42.9791 29.7318 43.6131 29.9908 44.275 30C44.604 30.0019 44.9302 29.9388 45.2348 29.8144C45.5394 29.69 45.8164 29.5067 46.05 29.275L53.975 21.35C55.437 19.8163 56.2443 17.7735 56.2256 15.6547C56.2069 13.5359 55.3638 11.5077 53.875 9.99998ZM50.35 17.8L44.175 23.975L38.025 17.8C37.4415 17.2066 37.1177 16.4057 37.1247 15.5735C37.1317 14.7413 37.4691 13.946 38.0625 13.3625C38.6559 12.779 39.4568 12.4552 40.289 12.4622C41.1212 12.4692 41.9165 12.8066 42.5 13.4C42.7324 13.6343 43.0089 13.8203 43.3136 13.9472C43.6182 14.0741 43.945 14.1395 44.275 14.1395C44.605 14.1395 44.9318 14.0741 45.2364 13.9472C45.5411 13.8203 45.8176 13.6343 46.05 13.4C46.6443 12.8373 47.4316 12.5238 48.25 12.5238C49.0684 12.5238 49.8557 12.8373 50.45 13.4C51.011 14.0013 51.3146 14.7982 51.2959 15.6203C51.2772 16.4425 50.9377 17.2248 50.35 17.8Z" fill="#759589"/>
</svg>
