<svg width="60" height="60" viewBox="0 0 60 60" fill="none" xmlns="http://www.w3.org/2000/svg">
<path d="M50 22.35C49.974 22.1203 49.9237 21.8941 49.85 21.675V21.45C49.7298 21.1929 49.5695 20.9567 49.375 20.75L34.375 5.75C34.1683 5.55554 33.9321 5.3952 33.675 5.275H33.425C33.1819 5.14501 32.9207 5.0523 32.65 5H17.5C15.5109 5 13.6032 5.79018 12.1967 7.1967C10.7902 8.60322 10 10.5109 10 12.5V47.5C10 49.4891 10.7902 51.3968 12.1967 52.8033C13.6032 54.2098 15.5109 55 17.5 55H42.5C44.4891 55 46.3968 54.2098 47.8033 52.8033C49.2098 51.3968 50 49.4891 50 47.5V22.5V22.35ZM35 13.525L41.475 20H37.5C36.837 20 36.2011 19.7366 35.7322 19.2678C35.2634 18.7989 35 18.163 35 17.5V13.525ZM45 47.5C45 48.163 44.7366 48.7989 44.2678 49.2678C43.7989 49.7366 43.163 50 42.5 50H17.5C16.837 50 16.2011 49.7366 15.7322 49.2678C15.2634 48.7989 15 48.163 15 47.5V12.5C15 11.837 15.2634 11.2011 15.7322 10.7322C16.2011 10.2634 16.837 10 17.5 10H30V17.5C30 19.4891 30.7902 21.3968 32.1967 22.8033C33.6032 24.2098 35.5109 25 37.5 25H45V47.5ZM30 28.35C28.4501 27.5059 26.6468 27.2518 24.924 27.6349C23.2012 28.0179 21.6755 29.0121 20.6293 30.4335C19.5831 31.8549 19.0873 33.6071 19.2336 35.3659C19.3798 37.1247 20.1584 38.771 21.425 40L28.225 46.8C28.4574 47.0343 28.7339 47.2203 29.0386 47.3472C29.3432 47.4741 29.67 47.5395 30 47.5395C30.33 47.5395 30.6568 47.4741 30.9614 47.3472C31.2661 47.2203 31.5426 47.0343 31.775 46.8L38.575 40C39.8416 38.771 40.6202 37.1247 40.7664 35.3659C40.9127 33.6071 40.4169 31.8549 39.3707 30.4335C38.3245 29.0121 36.7988 28.0179 35.076 27.6349C33.3532 27.2518 31.5499 27.5059 30 28.35ZM35 33.175C35.4305 33.6062 35.6723 34.1907 35.6723 34.8C35.6723 35.4093 35.4305 35.9938 35 36.425L30 41.425L25 36.425C24.5695 35.9938 24.3277 35.4093 24.3277 34.8C24.3277 34.1907 24.5695 33.6062 25 33.175C25.4312 32.7445 26.0157 32.5027 26.625 32.5027C27.2343 32.5027 27.8188 32.7445 28.25 33.175C28.4824 33.4093 28.7589 33.5953 29.0636 33.7222C29.3682 33.8492 29.695 33.9145 30.025 33.9145C30.355 33.9145 30.6818 33.8492 30.9864 33.7222C31.2911 33.5953 31.5676 33.4093 31.8 33.175C32.229 32.7596 32.8028 32.5273 33.4 32.5273C33.9972 32.5273 34.571 32.7596 35 33.175Z" fill="#759589"/>
</svg>
