<svg width="13" height="10" viewBox="0 0 13 10" fill="none" xmlns="http://www.w3.org/2000/svg">
<path d="M7.72066 1.29871C7.64697 1.23005 7.58787 1.14725 7.54688 1.05525C7.50589 0.963247 7.48384 0.863933 7.48207 0.76323C7.48029 0.662528 7.49882 0.562498 7.53654 0.46911C7.57426 0.375722 7.6304 0.290888 7.70162 0.219669C7.77284 0.148451 7.85767 0.0923061 7.95106 0.0545851C8.04445 0.0168641 8.14448 -0.00166027 8.24518 0.000116515C8.34588 0.0018933 8.4452 0.0239348 8.5372 0.0649268C8.6292 0.105919 8.712 0.165021 8.78066 0.238708L12.7807 4.23871C12.9211 4.37933 13 4.56996 13 4.76871C13 4.96746 12.9211 5.15808 12.7807 5.29871L8.78066 9.29871C8.712 9.3724 8.6292 9.4315 8.5372 9.47249C8.4452 9.51348 8.34588 9.53552 8.24518 9.5373C8.14448 9.53908 8.04445 9.52055 7.95106 9.48283C7.85767 9.44511 7.77284 9.38896 7.70162 9.31775C7.6304 9.24653 7.57426 9.16169 7.53654 9.0683C7.49882 8.97492 7.48029 8.87489 7.48207 8.77419C7.48384 8.67348 7.50589 8.57417 7.54688 8.48217C7.58787 8.39017 7.64697 8.30737 7.72066 8.23871L10.4407 5.51871L0.75066 5.51871C0.551747 5.51871 0.360982 5.43969 0.220329 5.29904C0.0796764 5.15839 0.000659725 4.96762 0.000659734 4.76871C0.000659743 4.5698 0.0796764 4.37903 0.220329 4.23838C0.360982 4.09773 0.551747 4.01871 0.75066 4.01871L10.4407 4.01871L7.72066 1.29871Z" fill="#304248"/>
</svg>
