<svg width="60" height="60" viewBox="0 0 60 60" fill="none" xmlns="http://www.w3.org/2000/svg">
<path d="M29.0198 10.5925L29.166 10.7622C29.2595 10.8667 29.4071 11.0549 29.5694 11.2053C29.6552 11.288 29.737 11.3799 29.8476 11.4792L30.2032 11.7998L30.6268 12.1386C30.7838 12.2476 30.9441 12.3664 31.117 12.4817C31.4692 12.7031 31.8525 12.9358 32.2836 13.1271C32.4932 13.233 32.7215 13.3142 32.9481 13.4061C33.0617 13.4517 33.1822 13.4842 33.2997 13.5248C33.4181 13.5638 33.5363 13.6052 33.6602 13.6335L34.0291 13.7302L34.4078 13.805C34.4713 13.8167 34.534 13.8321 34.5982 13.8412L34.7918 13.8664C34.9214 13.8812 35.0492 13.9059 35.1803 13.914C35.7019 13.9639 36.2327 13.9565 36.7565 13.9211C36.6558 13.9225 36.7328 13.921 36.7122 13.9211L36.7195 13.9204L36.734 13.9189L36.763 13.9158L36.8212 13.9098L36.9374 13.8977L37.1698 13.8734L37.2859 13.8614C37.325 13.8574 37.3657 13.8537 37.3907 13.8468L37.5637 13.8113L37.7354 13.7779C37.7917 13.7677 37.8483 13.7576 37.9129 13.7397L38.2846 13.6475C38.4078 13.6182 38.5267 13.5726 38.6465 13.5373L38.8248 13.4818C38.8838 13.4626 38.941 13.4375 38.9988 13.4159L39.3407 13.2841L39.6684 13.1336C39.7778 13.0879 39.8809 13.0299 39.9836 12.9748C40.0855 12.9182 40.1896 12.8702 40.2864 12.8099C40.4795 12.6885 40.6721 12.5806 40.845 12.4508C41.2025 12.2117 41.5075 11.9425 41.7825 11.6951C41.9167 11.5668 42.0388 11.4374 42.1585 11.3203L42.4736 10.9627L42.7302 10.6339C42.8098 10.5335 42.8712 10.4315 42.9332 10.3457C43.0587 10.175 43.1366 10.0266 43.1972 9.9317L43.2875 9.7844L43.3197 9.7319C44.0091 8.6069 45.48 8.25381 46.605 8.94323C47.73 9.63264 48.0831 11.1036 47.3937 12.2286C47.3329 12.3264 47.2658 12.4201 47.1926 12.5091L47.0165 12.7207C46.8995 12.8567 46.7384 13.0641 46.505 13.303C46.3889 13.4228 46.2674 13.5611 46.1218 13.699L45.6497 14.1421L45.0864 14.6128C44.8789 14.7667 44.6638 14.9314 44.4325 15.0923C43.9629 15.4052 43.4461 15.7293 42.8661 16.0053C42.582 16.1535 42.2753 16.2755 41.9669 16.4056C41.8124 16.4703 41.6501 16.5214 41.4899 16.5798C41.329 16.6366 41.1674 16.6949 40.9994 16.7397L40.4959 16.8828L39.9788 16.9986C39.892 17.0167 39.8057 17.0382 39.7178 17.0532L39.453 17.0954C39.2758 17.121 39.0997 17.1555 38.9202 17.1723L38.3815 17.2228C38.2943 17.2324 38.1972 17.2362 38.0996 17.2395L37.8092 17.2494L37.5193 17.2572C37.4671 17.2594 37.4303 17.2572 37.3918 17.2556L37.2752 17.2506L37.0417 17.2409L36.9249 17.236L36.8665 17.2335L36.8373 17.2324L36.8227 17.2318L36.8154 17.2314C36.79 17.2317 36.8621 17.2304 36.7566 17.2319C36.0371 17.1766 35.3246 17.0758 34.6408 16.9058C34.4692 16.8678 34.3021 16.8124 34.1345 16.7663L33.885 16.6938C33.8024 16.6687 33.7218 16.6374 33.6407 16.6095L33.1604 16.4367L32.6982 16.2398C32.5445 16.1778 32.3982 16.1027 32.2529 16.0298C32.1084 15.9554 31.9623 15.8888 31.8248 15.8095C31.55 15.6499 31.2788 15.5012 31.0315 15.329C30.5249 15.0051 30.0864 14.6446 29.6941 14.3057C29.5013 14.1317 29.3246 13.9565 29.1543 13.7943L28.6994 13.3051L28.3264 12.8539C28.2118 12.7148 28.1106 12.5664 28.0184 12.4436C27.8218 12.1844 27.7304 12.0168 27.6463 11.8904L27.5262 11.7012C27.3936 11.4925 27.3494 11.2396 27.4032 10.9982C27.4571 10.7568 27.6047 10.5467 27.8134 10.414C28.2093 10.1628 28.7226 10.2472 29.0198 10.5925Z" fill="#759589"/>
<path d="M35.9265 10.0414L32.3768 6.4917C31.9182 6.03314 31.9182 5.28982 32.3768 4.83139L35.9265 1.28166C36.3851 0.823105 37.1284 0.823105 37.5868 1.28166L41.1365 4.83139C41.5951 5.28994 41.5951 6.03326 41.1365 6.4917L37.5868 10.0414C37.1284 10.4999 36.3851 10.4999 35.9265 10.0414ZM58.0344 40.0387C58.0234 39.4949 58.007 39.2047 58.007 39.2047V39.1898C58.007 39.1898 58.0079 38.8939 57.99 38.339C57.9672 37.7831 57.9369 36.9678 57.8678 35.9218C57.8512 35.6601 57.8375 35.3844 57.8143 35.0937C57.7965 34.8035 57.7699 34.4988 57.744 34.1802C57.6844 33.5429 57.6228 32.8499 57.5039 32.1026C57.3878 31.3556 57.2329 30.5547 56.9937 29.7045C56.7522 28.8554 56.4288 27.9539 55.9427 27.0268L55.7451 26.6805L55.6446 26.5064L55.5326 26.334L55.3028 25.9878L55.0447 25.6473L54.9123 25.477L54.7671 25.3115C54.6684 25.202 54.5738 25.089 54.4684 24.9822C54.2532 24.7711 54.0374 24.5566 53.7912 24.3644C53.5564 24.1609 53.2898 23.9888 53.0266 23.81C52.7518 23.6499 52.4758 23.4817 52.181 23.3518C51.8911 23.2047 51.5878 23.1023 51.2829 22.9879C50.9771 22.9001 50.6647 22.7967 50.3531 22.7409C50.1941 22.71 50.0457 22.6731 49.8753 22.6492C49.7032 22.6257 49.5309 22.604 49.3583 22.5839C49.1632 22.5593 49.067 22.5574 48.9343 22.547L48.7448 22.5337L48.6499 22.5271L48.6261 22.5254C48.68 22.526 48.528 22.5229 48.5311 22.5229L48.472 22.5227C48.1557 22.5251 47.8421 22.5139 47.5128 22.5453C47.349 22.5594 47.1869 22.5641 47.0199 22.5883L46.5179 22.6621C45.8441 22.7849 45.1538 22.9842 44.4824 23.2871C43.8069 23.6018 43.1773 24.0067 42.6108 24.4908C42.0432 24.9731 41.5482 25.5286 41.1387 26.1106C40.7259 26.6928 40.3812 27.3002 40.0897 27.914C40.0469 28.0066 40.0071 28.0997 39.9663 28.1925C38.6535 27.8124 37.2714 27.7358 35.9246 27.9687C34.1778 28.2688 31.7874 29.1942 29.4635 31.7502C29.2794 31.4819 29.0891 31.2179 28.8927 30.9585C28.3568 30.2435 27.9003 29.7212 27.5758 29.3521L27.1356 28.8638C27.3241 27.9187 27.3955 26.9453 27.3627 25.9801C27.3579 25.8418 27.3494 25.6978 27.3417 25.5578C27.3391 25.4816 27.3319 25.4337 27.3266 25.3726L27.3096 25.1979L27.3058 25.1542L27.304 25.1322L27.303 25.1213C27.3024 25.066 27.3021 25.0988 27.3015 25.0834L27.2903 24.9844L27.2676 24.7865C27.2556 24.6546 27.2315 24.5238 27.2148 24.3927C27.1374 23.8706 27.0317 23.3532 26.898 22.8426C26.6359 21.8231 26.2459 20.8413 25.7506 19.9195C25.6885 19.8051 25.6165 19.6802 25.5491 19.561C25.5128 19.4965 25.4842 19.4495 25.4546 19.4003L25.3658 19.2521L25.1455 18.9112C25.0763 18.7999 24.9981 18.6962 24.924 18.589C24.6239 18.1672 24.2984 17.7641 23.9494 17.3819C23.2565 16.6231 22.476 15.9648 21.6476 15.4473C21.4411 15.3153 21.2321 15.1984 21.0198 15.081L20.3946 14.7706L20.33 14.7391L20.2978 14.7237L20.2817 14.7159L20.2737 14.7121C20.1929 14.6867 20.2454 14.7027 20.2248 14.6959L20.0637 14.6306C19.9562 14.5885 19.8503 14.5422 19.7428 14.5057L19.4233 14.3929L19.1053 14.2965C18.6837 14.1737 18.27 14.0803 17.8714 14.0206C17.4732 13.9529 17.0903 13.9243 16.729 13.9063C16.0056 13.8723 15.3699 13.9345 14.8569 14.032C14.7286 14.0571 14.6071 14.0802 14.4941 14.1089L14.1779 14.1936C13.9732 14.2519 13.7769 14.3229 13.6462 14.3695C13.4426 14.4555 13.3369 14.5101 13.3369 14.5101C12.4343 14.9778 11.8899 15.9894 12.0655 17.0464C12.2836 18.3595 13.5248 19.2472 14.838 19.0291C14.838 19.0291 14.9553 19.0097 15.17 18.9567C15.2506 18.9408 15.315 18.9347 15.4185 18.9089L15.8097 18.8257C16.1031 18.7632 16.4599 18.6859 16.882 18.6122C17.3044 18.5438 17.7922 18.5011 18.3363 18.5059L18.5428 18.5109L18.7541 18.5221C18.8262 18.5237 18.8968 18.534 18.9699 18.5394L19.08 18.5491C19.065 18.544 19.1233 18.5614 19.0481 18.5378L19.0569 18.5393L19.0745 18.5423L19.1097 18.5484L19.1806 18.5603L19.4491 18.603L19.6502 18.6302C19.8015 18.6606 19.9626 18.6916 20.1208 18.7339C20.7581 18.8951 21.4352 19.1511 22.0731 19.5498C22.4 19.7516 22.707 19.9839 22.9902 20.2435C23.0603 20.3113 23.1355 20.376 23.2025 20.4478L23.3062 20.5538L23.3572 20.608L23.3635 20.6148C23.3687 20.621 23.3413 20.5833 23.3562 20.6032L23.37 20.6197L23.3976 20.6528L23.5086 20.7852C23.5459 20.8296 23.5849 20.8756 23.6101 20.9086C23.6671 20.9835 23.7273 21.048 23.7835 21.1324C24.2608 21.7854 24.6105 22.5566 24.7999 23.3624C24.8929 23.7644 24.9414 24.1754 24.9445 24.588C24.9425 24.6904 24.945 24.7924 24.938 24.8941L24.9276 25.0463L24.9225 25.1222C24.9222 25.1138 24.9222 25.154 24.9217 25.106L24.9206 25.1169L24.9185 25.1387L24.9143 25.1824L24.8951 25.3569C24.8879 25.4122 24.884 25.4805 24.8734 25.5203L24.8161 25.7922C24.6447 26.5745 24.3 27.2897 23.8875 27.8922C23.6894 28.1846 23.47 28.462 23.2312 28.7223C23.1195 28.8454 23.0039 28.965 22.8846 29.0808C22.8265 29.1376 22.7712 29.1951 22.7103 29.2473L22.6221 29.3267L22.579 29.3665L22.5579 29.3865C22.6155 29.3129 22.5698 29.3699 22.581 29.3552L22.5739 29.3618L22.56 29.3749L22.3385 29.5827C22.2975 29.6239 22.2753 29.6353 22.2488 29.6545L22.1723 29.7092L22.1 29.7656L22.0118 29.8312C21.9528 29.8742 21.8976 29.9194 21.8386 29.9597C21.6087 30.1274 21.3779 30.2734 21.1575 30.4103C20.2628 30.9421 19.4699 31.2456 18.9065 31.4331C18.8367 31.4593 18.7696 31.4797 18.7063 31.499C18.6403 31.5192 18.5907 31.5395 18.5228 31.5592L18.2378 31.6489L18.0892 31.6993L18.0431 31.7168L17.6669 31.8585C16.7515 32.2069 16.112 33.1044 16.1392 34.1392C16.1736 35.4492 17.2636 36.4833 18.5736 36.4488L18.699 36.4455C18.7807 36.4413 18.9004 36.435 19.048 36.4214C19.1959 36.4053 19.367 36.3853 19.5596 36.3561C19.6656 36.3381 19.7713 36.3186 19.8767 36.2974C19.9916 36.2741 20.114 36.2505 20.241 36.2164C20.8553 36.0657 21.4517 35.8493 22.0197 35.571C22.7537 35.2109 23.4387 34.7588 24.0583 34.2255C24.2262 34.0771 24.3963 33.9254 24.558 33.7579C24.7262 33.5919 24.8876 33.4191 25.0417 33.2399C25.1203 33.1493 25.1947 33.0528 25.2715 32.9584L25.3858 32.8152L25.5082 32.6522L25.6278 32.4859C25.6667 32.4309 25.712 32.3693 25.7321 32.3319L25.8894 32.0721L25.8992 32.0557L25.9042 32.0475C25.9192 32.0278 25.8776 32.0798 25.9391 32.0014L25.9631 31.9604L26.0104 31.8777L26.0174 31.8655C26.2452 32.118 26.4634 32.3791 26.6714 32.6482C26.9054 32.9491 27.1461 33.2968 27.3957 33.6832C27.6382 34.0741 27.8913 34.5036 28.1264 34.981C28.2432 35.2201 28.3589 35.4691 28.4721 35.728L28.5553 35.9245L28.5974 36.0238L28.6079 36.0487L28.6132 36.0612C28.6093 36.0526 28.6292 36.0981 28.6059 36.045L28.6267 36.1001L28.7951 36.5477L28.881 36.776C28.9083 36.851 28.9262 36.9158 28.9496 36.9867L29.085 37.4079C29.1312 37.5491 29.1696 37.7075 29.2132 37.8588C29.2535 38.0128 29.3012 38.1663 29.3332 38.3257C29.4858 38.9566 29.5988 39.6218 29.6749 40.3108C29.7413 41.0013 29.7687 41.7149 29.747 42.4422C29.6935 43.8967 29.4104 45.403 28.8839 46.8355C28.3521 48.2624 27.5632 49.6236 26.4897 50.679C25.9608 51.2115 25.3639 51.6615 24.7381 52.0365C24.5795 52.1274 24.4262 52.2247 24.2605 52.3013C24.0981 52.3829 23.9396 52.469 23.7716 52.5375L23.5249 52.6479C23.4431 52.6851 23.3565 52.7131 23.2732 52.7467L23.0223 52.8445L23.0067 52.8507C22.9324 52.8824 23.091 52.8145 23.0665 52.8242L23.0245 52.8387L22.9408 52.8681L22.7735 52.9269L22.4389 53.0446L22.2143 53.101L21.9999 53.1602C21.9131 53.1788 21.826 53.1964 21.7403 53.2176C21.654 53.2374 21.5689 53.2609 21.4824 53.2788L21.2212 53.324C21.1342 53.3387 21.0491 53.3618 20.9613 53.3726L20.6987 53.4074C19.9996 53.5031 19.2894 53.5297 18.5743 53.4936C17.1447 53.411 15.7107 53.0123 14.399 52.3903C13.7404 52.0834 13.1143 51.7165 12.5222 51.3157C12.2236 51.1185 11.9413 50.9018 11.661 50.6876L11.2547 50.3516C11.1207 50.2391 10.994 50.1192 10.8631 50.0054C9.83518 49.0727 8.97596 48.0401 8.28186 47.0073C8.1001 46.7538 7.94904 46.488 7.78756 46.235C7.64433 45.9853 7.50105 45.7355 7.35772 45.4858L7.14514 45.0718C7.08701 44.953 7.02865 44.8421 6.97123 44.7208L6.79943 44.3556L6.64135 43.9969C6.24127 43.0485 5.9619 42.1856 5.77252 41.462C5.58725 40.7374 5.47779 40.1544 5.41311 39.7549C5.37994 39.555 5.35943 39.401 5.34397 39.2972L5.321 39.1393L5.31104 39.0682C5.2126 38.3917 4.661 37.8458 3.95037 37.7823C3.11928 37.708 2.38545 38.3215 2.31115 39.1526L2.29428 39.3416C2.28303 39.4664 2.26486 39.6519 2.25502 39.8942C2.21665 40.5971 2.22326 41.3016 2.27483 42.0036C2.33483 42.9132 2.484 44.0184 2.79713 45.2598L2.92275 45.731L3.0642 46.2139C3.11494 46.3786 3.17588 46.5541 3.23342 46.7277L3.39525 47.1931L3.41541 47.2505L3.42549 47.2792L3.44893 47.336L3.49908 47.4628L3.60068 47.719C3.67029 47.8903 3.73533 48.0665 3.81397 48.2392C3.97346 48.5833 4.12486 48.9428 4.31166 49.2948C5.02615 50.7186 5.99002 52.1872 7.24006 53.57C8.48518 54.9549 10.035 56.2379 11.8585 57.2631C12.7949 57.7863 13.7788 58.2194 14.797 58.5566C15.8389 58.9015 16.9426 59.1396 18.0806 59.2587C19.2376 59.3831 20.4059 59.3556 21.5557 59.1767L21.9908 59.1033C22.1358 59.0784 22.279 59.0417 22.4229 59.0099L22.8528 58.9062C22.9952 58.868 23.1362 58.8232 23.2776 58.7813C23.4191 58.7394 23.5595 58.6938 23.7 58.6493L24.1556 58.4791L24.3824 58.3919L24.4952 58.3472L24.5515 58.3246C24.568 58.3183 24.5843 58.3113 24.6002 58.3036L24.9208 58.1519C27.0739 57.1597 28.8735 55.5689 30.1928 53.7778C30.8542 52.8806 31.4031 51.9337 31.8537 50.9715C32.302 50.0074 32.6409 49.0219 32.8849 48.0412C33.1226 47.0861 33.2772 46.1123 33.3471 45.1305C33.4151 44.177 33.413 43.2462 33.3408 42.3507C33.2734 41.4855 33.151 40.6255 32.9744 39.7759C32.8782 39.3688 32.7916 38.9679 32.6799 38.5819C32.625 38.3887 32.5782 38.1955 32.5175 38.0083L32.3392 37.4529C32.2836 37.2688 32.2115 37.0923 32.1486 36.9153L32.1433 36.9007L32.1862 36.9286C33.5625 34.8149 35.2103 33.4979 36.826 33.2201C37.4806 33.1076 38.0634 33.1768 38.5639 33.3333C38.2785 35.2265 38.1781 37.1006 38.1453 38.9368C38.1301 40.1592 38.1519 41.3862 38.254 42.6214L38.2917 43.0843L38.3393 43.5483C38.3681 43.8568 38.4118 44.1676 38.4498 44.4769C38.5383 45.0968 38.6404 45.7161 38.7733 46.3372C39.0307 47.5774 39.3985 48.8208 39.9241 50.0454C40.1926 50.657 40.5056 51.264 40.8725 51.8554C41.2531 52.4637 41.6938 53.0323 42.1878 53.5527C42.6962 54.0837 43.2774 54.5751 43.9317 54.9733C44.5826 55.374 45.2947 55.6778 46.0132 55.8773C46.1934 55.9228 46.3733 55.9744 46.5528 56.0092C46.7326 56.0417 46.912 56.0726 47.0908 56.1015L47.1583 56.1119L47.2336 56.1195L47.3839 56.1338L47.6839 56.1588L47.8335 56.1695C47.8815 56.1725 47.9404 56.1772 47.9646 56.1758L48.1557 56.1542L48.3463 56.1327H48.4413C48.4282 56.1327 48.6322 56.1563 48.5614 56.1544L48.5934 56.1633L48.6574 56.1649C48.8276 56.1538 48.9971 56.1452 49.1662 56.1341C49.3356 56.1197 49.5077 56.0921 49.6768 56.0692C49.7617 56.0563 49.846 56.0462 49.9305 56.0307L50.1846 55.976L50.4369 55.9192C50.5214 55.9015 50.605 55.8794 50.6872 55.8531L51.1817 55.6987C51.5045 55.5742 51.826 55.4525 52.1264 55.2905C52.2785 55.2138 52.4296 55.1372 52.5709 55.0465C52.7135 54.9581 52.8583 54.8734 52.9945 54.7799C53.1269 54.6832 53.2593 54.5865 53.3918 54.4899C53.5237 54.3937 53.6399 54.2851 53.7624 54.1827L53.9423 54.0266L54.1093 53.8633C54.2184 53.7537 54.3312 53.6462 54.4333 53.5344C54.6326 53.3082 54.8332 53.0847 55.0022 52.8522C55.3588 52.3933 55.6431 51.9235 55.8995 51.4622C56.3973 50.5354 56.7385 49.6332 56.9982 48.7807C57.2553 47.9271 57.4374 47.1227 57.5726 46.3694C57.7106 45.6162 57.7945 44.9157 57.8605 44.2703C57.924 43.6248 57.9636 43.0358 57.9896 42.5048C58.0445 41.4429 58.0378 40.6196 58.0344 40.0387ZM54.6078 38.3829C54.5973 38.9092 54.6085 39.1898 54.6085 39.1898V39.1749C54.6085 39.1749 54.5799 39.4615 54.5578 39.9985C54.5151 40.7376 54.4519 41.4753 54.3682 42.2108C54.2615 43.159 54.0834 44.3046 53.7604 45.5477C53.5978 46.1675 53.4014 46.8133 53.1452 47.4507C52.8908 48.0875 52.5792 48.7181 52.2057 49.2868C52.0153 49.565 51.8161 49.8378 51.5951 50.0697C51.4894 50.1944 51.3715 50.2954 51.2596 50.4057C51.2022 50.4582 51.1411 50.5022 51.0831 50.5521L50.9954 50.6251L50.9035 50.6878C50.8418 50.7279 50.7847 50.7783 50.721 50.8126C50.658 50.8482 50.5957 50.885 50.5342 50.923C50.4712 50.9579 50.4051 50.984 50.342 51.017C50.2799 51.0522 50.2124 51.0746 50.1462 51.0995C50.0172 51.1572 49.8772 51.1894 49.7419 51.2334C49.6701 51.2468 49.599 51.2617 49.5283 51.2781C49.4926 51.2878 49.456 51.2939 49.419 51.2965L49.3072 51.3104L49.1959 51.3266C49.1577 51.33 49.1177 51.3297 49.0788 51.3321C48.9998 51.3341 48.9241 51.3442 48.8429 51.3432C48.7676 51.3405 48.6923 51.3388 48.617 51.3381L48.5284 51.3315L48.3384 51.3173L48.1479 51.3031C48.108 51.3015 48.1038 51.2965 48.0885 51.2928L48.0476 51.2818C48.0205 51.2749 47.9933 51.2688 47.9659 51.2634L47.9249 51.256L47.9044 51.2528L47.8772 51.245C47.8037 51.2248 47.7297 51.2062 47.6554 51.1892C47.5821 51.1703 47.5151 51.1399 47.4439 51.1186C47.1671 51.0166 46.9137 50.8817 46.6685 50.7121C46.423 50.5437 46.194 50.3183 45.9678 50.0584C45.5143 49.5411 45.1118 48.8206 44.7767 47.9983C44.6168 47.5801 44.4594 47.1462 44.3301 46.6847C44.2015 46.2232 44.083 45.7483 43.9846 45.2554C43.7833 44.2742 43.6463 43.2403 43.5538 42.1858C43.5074 41.6588 43.4775 41.1241 43.4489 40.5879C43.4267 40.0479 43.4138 39.5076 43.4103 38.9672L43.4066 38.5347L43.4068 38.1254C43.406 37.8575 43.4097 37.5846 43.4149 37.3101C43.4247 36.7629 43.4419 36.2216 43.4672 35.6846C43.5273 34.6152 43.6142 33.5642 43.7785 32.5733C43.8545 32.0748 43.9569 31.5983 44.0686 31.1344C44.1882 30.6769 44.3206 30.2392 44.475 29.8299C44.7929 29.0232 45.1885 28.3433 45.6649 27.8737C45.8953 27.6392 46.1556 27.436 46.439 27.2695C46.7257 27.1115 47.0426 26.9879 47.3858 26.8929L47.6503 26.8315C47.7379 26.8091 47.8345 26.8025 47.926 26.786C48.1074 26.7493 48.3068 26.7462 48.4984 26.7258L48.5346 26.7215C48.5549 26.721 48.4174 26.719 48.4871 26.719H48.5109L48.6061 26.7193L48.796 26.7188C48.9158 26.719 49.072 26.715 49.1262 26.7235C49.2026 26.7288 49.2791 26.7324 49.3561 26.7343C49.4338 26.7368 49.5285 26.7554 49.614 26.7636C49.7021 26.7732 49.7904 26.7824 49.8715 26.803L50.121 26.8519C50.276 26.9019 50.4404 26.9342 50.5845 26.9979C50.7381 27.0463 50.8741 27.1219 51.0167 27.1861C51.1483 27.2686 51.289 27.3354 51.4118 27.4326C51.9255 27.7806 52.3553 28.2902 52.7238 28.8617C53.0858 29.4438 53.3669 30.0961 53.5896 30.7523C53.813 31.4095 53.9798 32.072 54.1128 32.7078C54.3786 33.9824 54.5029 35.1521 54.5553 36.1186C54.5822 36.6027 54.5981 37.0377 54.6014 37.4172C54.6085 37.7959 54.609 38.1208 54.6078 38.3829Z" fill="#759589"/>
</svg>
