<svg width="30" height="30" viewBox="0 0 30 30" fill="none" xmlns="http://www.w3.org/2000/svg">
<path d="M18.9254 14.7662C18.4245 14.4446 17.8809 14.1951 17.3104 14.025C16.9604 13.9187 16.5729 13.815 16.1729 13.7162C15.8229 13.6187 15.4079 13.5187 14.8954 13.4062C14.2839 13.278 13.6836 13.1007 13.1004 12.8762C12.7999 12.7595 12.5346 12.567 12.3304 12.3175C12.181 12.1133 12.11 11.8622 12.1304 11.61C12.13 11.3395 12.2202 11.0768 12.3867 10.8637C12.6197 10.5908 12.922 10.3857 13.2617 10.27C13.8331 10.0736 14.4353 9.98215 15.0392 9.99995C15.5065 9.9922 15.9724 10.0537 16.4217 10.1825C16.7197 10.2663 17.0003 10.4026 17.2504 10.585C17.4122 10.7004 17.5501 10.846 17.6567 11.0137C17.7339 11.1594 17.8391 11.2883 17.9663 11.3932C18.0935 11.498 18.2402 11.5766 18.398 11.6245C18.5557 11.6724 18.7214 11.6887 18.8854 11.6723C19.0494 11.6559 19.2086 11.6073 19.3538 11.5291C19.4989 11.451 19.6272 11.3449 19.7312 11.217C19.8351 11.0891 19.9128 10.9419 19.9597 10.7838C20.0065 10.6258 20.0217 10.46 20.0042 10.2961C19.9867 10.1322 19.937 9.97334 19.8579 9.8287C19.5943 9.36248 19.2383 8.95499 18.8117 8.6312C18.3188 8.25254 17.7597 7.96896 17.1629 7.79495C16.4741 7.59144 15.7587 7.49201 15.0404 7.49995C14.1274 7.48031 13.2186 7.6286 12.3592 7.93745C11.582 8.22039 10.8992 8.7148 10.3879 9.36495C9.89822 10.0114 9.63311 10.8002 9.63294 11.6112C9.61266 12.4186 9.86841 13.2088 10.3579 13.8512C10.8305 14.4464 11.4501 14.9082 12.1554 15.1912C12.6884 15.3963 13.2342 15.5667 13.7892 15.7012C13.7992 15.705 13.8067 15.7137 13.8167 15.7162C14.0567 15.7887 14.4392 15.885 14.9917 16.0037C15.2079 16.0512 15.4104 16.1025 15.6129 16.1537C15.6329 16.1587 15.6617 16.165 15.6804 16.1712L15.7029 16.1737C16.0129 16.2537 16.3117 16.335 16.5854 16.4187C16.9218 16.5171 17.2428 16.6618 17.5392 16.8487C17.724 16.9648 17.8794 17.1223 17.9929 17.3087C18.1028 17.5362 18.1536 17.7877 18.1404 18.04C18.1577 18.3665 18.0634 18.6892 17.8729 18.955C17.6157 19.2897 17.2678 19.5435 16.8704 19.6862C16.2782 19.9148 15.6461 20.0219 15.0117 20.0012C14.278 20.0294 13.5482 19.882 12.8829 19.5712C12.5757 19.4076 12.3118 19.1732 12.1129 18.8875C11.9734 18.7046 11.8861 18.4873 11.8604 18.2587C11.8604 17.9272 11.7287 17.6092 11.4943 17.3748C11.2599 17.1404 10.942 17.0087 10.6104 17.0087C10.2789 17.0087 9.96098 17.1404 9.72656 17.3748C9.49214 17.6092 9.36044 17.9272 9.36044 18.2587C9.38105 18.9963 9.62322 19.7106 10.0554 20.3087C10.4874 20.9308 11.0628 21.4397 11.7329 21.7925C12.7526 22.29 13.8776 22.5331 15.0117 22.5012C15.9754 22.5245 16.9339 22.3523 17.8292 21.995C18.6615 21.6756 19.3841 21.1231 19.9104 20.4037C20.4108 19.7028 20.6673 18.857 20.6404 17.9962C20.652 17.3289 20.4905 16.67 20.1717 16.0837C19.8637 15.5544 19.4371 15.1038 18.9254 14.7675M27.9517 17.115C28.2889 15.0606 28.1322 12.9555 27.4945 10.9737C26.8568 8.99188 25.7564 7.19041 24.2843 5.71825C22.8123 4.24609 21.0109 3.14555 19.0292 2.50767C17.0475 1.86979 14.9423 1.71289 12.8879 2.04996C11.3712 1.32273 9.66613 1.08424 8.00808 1.36742C6.35002 1.65059 4.82075 2.44146 3.63135 3.63086C2.44195 4.82026 1.65108 6.34953 1.36791 8.00759C1.08473 9.66565 1.32322 11.3707 2.05044 12.8875C1.71371 14.9415 1.87076 17.0462 2.50862 19.0276C3.14647 21.0089 4.2468 22.8099 5.71863 24.2818C7.19046 25.7536 8.9915 26.8539 10.9728 27.4918C12.9542 28.1296 15.0589 28.2867 17.1129 27.95C18.6297 28.6772 20.3347 28.9157 21.9928 28.6325C23.6509 28.3493 25.1801 27.5584 26.3695 26.369C27.5589 25.1796 28.3498 23.6504 28.633 21.9923C28.9162 20.3343 28.6777 18.6292 27.9504 17.1125M20.6254 26.25C19.677 26.2495 18.744 26.0096 17.9129 25.5525C17.6551 25.4104 17.3556 25.3635 17.0667 25.42C15.5262 25.7272 13.9366 25.6887 12.4128 25.3073C10.8889 24.9258 9.46869 24.2109 8.25459 23.214C7.0405 22.2172 6.06278 20.9634 5.39196 19.5429C4.72115 18.1225 4.37396 16.5708 4.37544 15C4.37673 14.3058 4.44538 13.6134 4.58044 12.9325C4.63699 12.6436 4.59009 12.344 4.44794 12.0862C3.86101 11.0187 3.6365 9.7895 3.80817 8.58344C3.97984 7.37738 4.53841 6.25965 5.39989 5.39831C6.26137 4.53697 7.3792 3.97858 8.58529 3.80711C9.79137 3.63564 11.0205 3.86035 12.0879 4.44746C12.346 4.5902 12.6462 4.63714 12.9354 4.57996C14.4759 4.27291 16.0653 4.31156 17.589 4.69312C19.1127 5.07468 20.5327 5.78964 21.7467 6.78644C22.9606 7.78323 23.9382 9.03701 24.609 10.4574C25.2797 11.8777 25.6269 13.4292 25.6254 15C25.6242 15.6941 25.5555 16.3865 25.4204 17.0675C25.3639 17.3563 25.4108 17.6559 25.5529 17.9137C26.0245 18.7701 26.2646 19.7346 26.2497 20.7121C26.2348 21.6895 25.9653 22.6463 25.4678 23.4878C24.9704 24.3294 24.2622 25.0268 23.413 25.5111C22.5638 25.9955 21.603 26.2502 20.6254 26.25Z" fill="#ebf4f1"/>
</svg>
