<svg width="30" height="30" viewBox="0 0 30 30" fill="none" xmlns="http://www.w3.org/2000/svg">
<path d="M14.9894 1.25001C13.1978 1.18474 11.4116 1.48324 9.73855 2.12749C8.06555 2.77173 6.54046 3.74835 5.25539 4.99838C3.97031 6.24841 2.9519 7.74592 2.26165 9.40047C1.57141 11.055 1.22364 12.8323 1.23935 14.625C1.21569 16.4724 1.58378 18.3038 2.31935 19.9986C3.05492 21.6934 4.14129 23.2131 5.50685 24.4575L5.57185 26.57C5.59004 27.1543 5.83493 27.7086 6.25466 28.1155C6.67439 28.5224 7.23601 28.75 7.8206 28.75C8.13294 28.7496 8.44185 28.685 8.7281 28.56L11.1294 27.5C12.3886 27.8351 13.6863 28.0032 14.9894 28C16.781 28.0653 18.5673 27.7668 20.2403 27.1225C21.9134 26.4783 23.4386 25.5017 24.7237 24.2517C26.0089 23.0017 27.0274 21.5042 27.7178 19.8496C28.4082 18.1951 28.7561 16.4178 28.7406 14.625C28.7561 12.8324 28.4082 11.0552 27.7179 9.40068C27.0276 7.74621 26.0092 6.24878 24.7242 4.99878C23.4391 3.74879 21.9141 2.77216 20.2412 2.12785C18.5683 1.48354 16.7809 1.18492 14.9894 1.25001ZM14.9906 25.5C13.878 25.5035 12.77 25.3563 11.6969 25.0625C11.2 24.9287 10.6724 24.9693 10.2019 25.1775L8.05935 26.1225L8.0031 24.2563C7.99068 23.9538 7.91768 23.6569 7.78842 23.3831C7.65916 23.1093 7.47628 22.8643 7.2506 22.6625C6.12595 21.6506 5.23069 20.41 4.62488 19.0237C4.01907 17.6375 3.71672 16.1377 3.7381 14.625C3.73022 13.1628 4.01867 11.7141 4.58605 10.3664C5.15344 9.01869 5.98798 7.79991 7.03933 6.7836C8.09068 5.7673 9.33704 4.97454 10.7032 4.45315C12.0693 3.93177 13.527 3.69258 14.9881 3.75001C16.4472 3.70053 17.9014 3.9452 19.264 4.46945C20.6267 4.99369 21.8698 5.78679 22.9196 6.80151C23.9693 7.81624 24.804 9.03183 25.3742 10.3759C25.9443 11.72 26.2381 13.165 26.2381 14.625C26.2381 16.085 25.9443 17.53 25.3742 18.8741C24.804 20.2182 23.9693 21.4338 22.9196 22.4485C21.8698 23.4632 20.6267 24.2563 19.264 24.7806C17.9014 25.3048 16.4472 25.5495 14.9881 25.5M19.6569 10.7313L16.7656 14.175L12.5819 11.605C12.3266 11.4479 12.0232 11.3879 11.7273 11.4361C11.4314 11.4843 11.1628 11.6375 10.9706 11.8675L7.1581 16.4125C7.0439 16.5368 6.95606 16.683 6.89989 16.8422C6.84373 17.0014 6.82039 17.1704 6.83129 17.3388C6.84219 17.5073 6.88711 17.6718 6.96333 17.8224C7.03955 17.9731 7.14549 18.1067 7.27477 18.2153C7.40404 18.3239 7.55397 18.4051 7.71551 18.4542C7.87705 18.5032 8.04685 18.5191 8.21467 18.5007C8.38249 18.4823 8.54485 18.4301 8.69196 18.3473C8.83907 18.2645 8.96787 18.1527 9.0706 18.0188L12.1944 14.3L16.3781 16.87C16.6334 17.0272 16.9367 17.0871 17.2326 17.0389C17.5285 16.9907 17.7971 16.8376 17.9894 16.6075L21.5718 12.3388C21.682 12.2137 21.7661 12.0679 21.8191 11.9099C21.8721 11.752 21.893 11.585 21.8805 11.4188C21.868 11.2526 21.8225 11.0906 21.7465 10.9423C21.6705 10.794 21.5656 10.6624 21.438 10.5552C21.3104 10.448 21.1626 10.3674 21.0034 10.3182C20.8442 10.2689 20.6768 10.252 20.511 10.2684C20.3451 10.2848 20.1843 10.3342 20.0378 10.4137C19.8913 10.4932 19.761 10.6012 19.6569 10.7313Z" fill="#ebf4f1"/>
</svg>
