<svg width="30" height="30" viewBox="0 0 30 30" fill="none" xmlns="http://www.w3.org/2000/svg">
<path d="M27.8305 3.03482C27.4746 2.73876 27.0451 2.54475 26.5877 2.47343C26.1303 2.40212 25.6621 2.45616 25.233 2.62982L2.83177 11.6736C2.35284 11.8707 1.94516 12.2088 1.66282 12.643C1.38049 13.0772 1.23684 13.5869 1.25095 14.1046C1.26505 14.6224 1.43623 15.1236 1.74179 15.5417C2.04734 15.9599 2.47282 16.2753 2.96177 16.4461L7.49302 18.0223L10.018 26.3748C10.0526 26.4863 10.1027 26.5923 10.1668 26.6898C10.1768 26.7048 10.1905 26.7148 10.2005 26.7311C10.2742 26.8336 10.3631 26.9242 10.4643 26.9998C10.4925 27.0219 10.5217 27.0428 10.5518 27.0623C10.6702 27.1409 10.8013 27.1984 10.9393 27.2323L10.9555 27.2336L10.963 27.2373C11.0466 27.2541 11.1316 27.2625 11.2168 27.2623L11.2393 27.2586C11.3673 27.2564 11.4942 27.2345 11.6155 27.1936C11.6443 27.1836 11.668 27.1686 11.6955 27.1561C11.7863 27.1189 11.8723 27.071 11.9518 27.0136C12.0151 26.9598 12.0784 26.906 12.1418 26.8523L15.5193 23.1236L20.5568 27.0261C21.0002 27.3714 21.546 27.5592 22.108 27.5598C22.6971 27.5591 23.268 27.3559 23.725 26.9843C24.182 26.6126 24.4973 26.0951 24.618 25.5186L28.6968 5.49732C28.789 5.04689 28.7572 4.57986 28.6046 4.14613C28.452 3.71241 28.1845 3.32829 27.8305 3.03482ZM11.7118 18.4198C11.5387 18.5926 11.4204 18.8126 11.3718 19.0523L10.9843 20.9323L10.0043 17.6911L15.0855 15.0448L11.7118 18.4198ZM22.0893 25.0498L16.1355 20.4373C15.8864 20.2451 15.574 20.1538 15.2606 20.1816C14.9471 20.2094 14.6557 20.3542 14.4443 20.5873L13.3618 21.7811L13.7443 19.9223L22.598 11.0686C22.8081 10.8572 22.9357 10.5778 22.958 10.2806C22.9802 9.98343 22.8955 9.6881 22.7192 9.44785C22.5429 9.2076 22.2866 9.03824 21.9964 8.9703C21.7063 8.90237 21.4014 8.94032 21.1368 9.07732L8.43052 15.6923L3.77427 13.9886L26.248 4.99982L22.0893 25.0498Z" fill="#ebf4f1"/>
</svg>
