<svg width="30" height="30" viewBox="0 0 30 30" fill="none" xmlns="http://www.w3.org/2000/svg">
<path d="M28.7395 4.93729C28.7395 4.71666 28.681 4.49997 28.5701 4.30923C28.4592 4.1185 28.2998 3.96051 28.1081 3.85132C27.9164 3.74213 27.6992 3.68563 27.4786 3.68756C27.258 3.68948 27.0418 3.74977 26.852 3.86229C26.12 4.29831 25.3319 4.63223 24.5095 4.85479C23.3357 3.84763 21.8386 3.29655 20.292 3.30229C18.5954 3.30432 16.966 3.96558 15.7478 5.14644C14.5297 6.3273 13.8181 7.93534 13.7633 9.63104C10.418 9.0977 7.38609 7.3517 5.24575 4.72604C5.11678 4.56975 4.95216 4.44674 4.76574 4.36734C4.57932 4.28794 4.37655 4.25448 4.1745 4.26979C3.9725 4.28651 3.7776 4.35215 3.60665 4.46104C3.43569 4.56993 3.2938 4.7188 3.19325 4.89479C2.67765 5.79466 2.38155 6.80345 2.32899 7.83923C2.27643 8.87502 2.46889 9.9086 2.89075 10.856L2.88825 10.8573C2.69823 10.9741 2.54141 11.1377 2.43284 11.3325C2.32427 11.5273 2.26759 11.7468 2.26825 11.9698C2.26624 12.1533 2.27752 12.3367 2.302 12.5185C2.42965 14.0911 3.12654 15.5631 4.262 16.6585C4.18495 16.8054 4.13797 16.9662 4.1238 17.1315C4.10964 17.2967 4.12857 17.4632 4.1795 17.621C4.67447 19.1637 5.72732 20.4662 7.132 21.2735C5.70471 21.8253 4.16362 22.0177 2.6445 21.8335C2.36347 21.7986 2.07889 21.8601 1.83739 22.008C1.59588 22.1559 1.41176 22.3815 1.31517 22.6477C1.21859 22.9139 1.21527 23.205 1.30576 23.4734C1.39625 23.7417 1.57518 23.9714 1.81325 24.1248C4.42601 25.8073 7.4681 26.7017 10.5758 26.701C14.0998 26.7407 17.5382 25.6147 20.3561 23.498C23.1739 21.3814 25.2133 18.3929 26.157 14.9973C26.5982 13.5182 26.8234 11.9832 26.8258 10.4398L26.8245 10.1898C27.4772 9.48579 27.9828 8.65858 28.3116 7.75664C28.6405 6.8547 28.7859 5.89618 28.7395 4.93729ZM24.607 8.95229C24.4003 9.19631 24.2956 9.51056 24.3145 9.82979C24.327 10.036 24.3258 10.2435 24.3258 10.4398C24.3231 11.7438 24.132 13.0405 23.7583 14.2898C22.9878 17.1793 21.27 19.7267 18.8799 21.5239C16.4897 23.3212 13.5656 24.2643 10.5758 24.2023C9.50216 24.2025 8.43229 24.0762 7.38825 23.826C8.71989 23.3966 9.96495 22.7347 11.0658 21.871C11.2687 21.7115 11.4173 21.4929 11.4911 21.2455C11.5648 20.998 11.5602 20.7338 11.4777 20.4891C11.3952 20.2444 11.239 20.0313 11.0305 19.879C10.822 19.7267 10.5714 19.6427 10.3133 19.6385C9.27416 19.6223 8.28195 19.2033 7.54575 18.4698C7.73242 18.4348 7.91783 18.391 8.102 18.3385C8.37203 18.2618 8.60836 18.0964 8.77292 17.8689C8.93748 17.6415 9.02069 17.3652 9.00914 17.0848C8.99759 16.8043 8.89196 16.5358 8.70926 16.3227C8.52656 16.1095 8.27743 15.9641 8.002 15.9098C7.39886 15.7907 6.83133 15.534 6.34354 15.1598C5.85574 14.7856 5.46083 14.304 5.1895 13.7523C5.41544 13.7832 5.64283 13.8024 5.87075 13.8098C6.1416 13.8142 6.40684 13.7323 6.62799 13.5759C6.84915 13.4195 7.01474 13.1967 7.10075 12.9398C7.18331 12.6807 7.17917 12.4018 7.08894 12.1454C6.99871 11.8889 6.82732 11.6688 6.60075 11.5185C6.05067 11.1524 5.60001 10.6555 5.28914 10.0723C4.97827 9.48922 4.81691 8.8381 4.8195 8.17729C4.8195 8.09479 4.822 8.01104 4.827 7.92979C7.62883 10.5431 11.2631 12.0836 15.0895 12.2798C15.2827 12.2871 15.475 12.2504 15.652 12.1725C15.8289 12.0945 15.9858 11.9773 16.1107 11.8298C16.2345 11.6814 16.3222 11.5062 16.3669 11.3182C16.4116 11.1301 16.412 10.9343 16.3682 10.746C16.2967 10.4476 16.2602 10.1417 16.2595 9.83479C16.2608 8.76571 16.6861 7.7408 17.4421 6.98484C18.198 6.22889 19.2229 5.80361 20.292 5.80229C20.8422 5.80067 21.3867 5.91313 21.8913 6.13258C22.3958 6.35203 22.8493 6.67371 23.2232 7.07729C23.3674 7.23244 23.5489 7.34812 23.7504 7.41332C23.9519 7.47853 24.1668 7.49108 24.3745 7.44979C24.888 7.34998 25.3942 7.2155 25.8895 7.04729C25.5518 7.73832 25.1202 8.37938 24.607 8.95229Z" fill="#ebf4f1"/>
</svg>
